<svg width="1440" height="97" viewBox="0 0 1440 97" fill="none" xmlns="http://www.w3.org/2000/svg">
<rect x="1223" y="32" width="190" height="39" rx="12" fill="#F9393B"/>
<path d="M1252.86 58.24C1251.99 58.24 1251.23 58.0933 1250.56 57.8C1249.89 57.5067 1249.33 57.096 1248.87 56.568C1248.42 56.04 1248.07 55.408 1247.83 54.672C1247.6 53.936 1247.48 53.1253 1247.48 52.24C1247.48 51.3493 1247.6 50.536 1247.83 49.8C1248.07 49.064 1248.42 48.432 1248.87 47.904C1249.33 47.376 1249.89 46.968 1250.56 46.68C1251.23 46.3867 1251.99 46.24 1252.86 46.24C1253.72 46.24 1254.49 46.3867 1255.15 46.68C1255.82 46.968 1256.38 47.376 1256.83 47.904C1257.29 48.432 1257.64 49.064 1257.87 49.8C1258.11 50.536 1258.23 51.3493 1258.23 52.24C1258.23 53.1253 1258.11 53.936 1257.87 54.672C1257.64 55.408 1257.29 56.04 1256.83 56.568C1256.38 57.096 1255.82 57.5067 1255.15 57.8C1254.49 58.0933 1253.72 58.24 1252.86 58.24ZM1252.86 56.88C1253.5 56.88 1254.06 56.768 1254.54 56.544C1255.03 56.32 1255.43 56.0053 1255.75 55.6C1256.08 55.1893 1256.32 54.6987 1256.48 54.128C1256.64 53.5573 1256.72 52.928 1256.72 52.24C1256.72 51.552 1256.64 50.9227 1256.48 50.352C1256.32 49.7813 1256.08 49.2933 1255.75 48.888C1255.43 48.4773 1255.03 48.16 1254.54 47.936C1254.06 47.712 1253.5 47.6 1252.86 47.6C1252.21 47.6 1251.65 47.712 1251.17 47.936C1250.69 48.16 1250.29 48.4773 1249.96 48.888C1249.64 49.2933 1249.4 49.7813 1249.24 50.352C1249.08 50.9227 1249 51.552 1248.99 52.24C1248.99 52.928 1249.06 53.5573 1249.22 54.128C1249.38 54.6987 1249.63 55.1893 1249.95 55.6C1250.28 56.0053 1250.68 56.32 1251.16 56.544C1251.65 56.768 1252.21 56.88 1252.86 56.88ZM1262.98 58.248C1262.37 58.2427 1261.83 58.136 1261.35 57.928C1260.88 57.72 1260.48 57.4213 1260.15 57.032C1259.82 56.6373 1259.56 56.16 1259.38 55.6C1259.2 55.0347 1259.09 54.3973 1259.06 53.688C1259.04 53.336 1259.04 52.9387 1259.05 52.496C1259.06 52.0533 1259.09 51.6187 1259.14 51.192C1259.2 50.76 1259.26 50.36 1259.34 49.992C1259.43 49.624 1259.54 49.288 1259.67 48.984C1259.81 48.6747 1259.98 48.3973 1260.17 48.152C1260.37 47.9067 1260.61 47.6933 1260.89 47.512C1261.15 47.3413 1261.42 47.2053 1261.69 47.104C1261.97 46.9973 1262.26 46.912 1262.55 46.848C1262.84 46.784 1263.15 46.7333 1263.45 46.696C1263.77 46.6533 1264.09 46.6133 1264.42 46.576C1264.76 46.5387 1265.1 46.496 1265.45 46.448C1265.81 46.3947 1266.17 46.3253 1266.55 46.24L1266.65 47.584C1266.11 47.712 1265.6 47.8027 1265.13 47.856C1264.67 47.904 1264.23 47.952 1263.82 48C1263.42 48.048 1263.05 48.112 1262.7 48.192C1262.36 48.2667 1262.04 48.392 1261.74 48.568C1261.54 48.6853 1261.37 48.824 1261.22 48.984C1261.08 49.144 1260.96 49.3387 1260.85 49.568C1260.75 49.792 1260.67 50.0587 1260.61 50.368C1260.55 50.6773 1260.5 51.04 1260.46 51.456C1260.8 50.9333 1261.21 50.552 1261.69 50.312C1262.18 50.072 1262.73 49.952 1263.35 49.952C1263.9 49.952 1264.4 50.0507 1264.85 50.248C1265.31 50.4453 1265.71 50.7253 1266.03 51.088C1266.36 51.4507 1266.61 51.8853 1266.79 52.392C1266.97 52.8933 1267.06 53.4533 1267.06 54.072C1267.06 54.7067 1266.96 55.2827 1266.77 55.8C1266.57 56.312 1266.29 56.752 1265.93 57.12C1265.58 57.4827 1265.15 57.7627 1264.65 57.96C1264.15 58.1573 1263.59 58.2533 1262.98 58.248ZM1263.03 56.896C1263.43 56.896 1263.79 56.832 1264.1 56.704C1264.42 56.5707 1264.68 56.384 1264.89 56.144C1265.11 55.8987 1265.28 55.6053 1265.39 55.264C1265.5 54.9227 1265.56 54.5413 1265.56 54.12C1265.56 53.688 1265.5 53.3013 1265.39 52.96C1265.28 52.6133 1265.12 52.3173 1264.91 52.072C1264.7 51.8267 1264.45 51.64 1264.14 51.512C1263.84 51.3787 1263.49 51.312 1263.1 51.312C1262.7 51.312 1262.34 51.3787 1262.02 51.512C1261.71 51.64 1261.45 51.8267 1261.24 52.072C1261.03 52.312 1260.86 52.6053 1260.75 52.952C1260.64 53.2987 1260.58 53.688 1260.58 54.12C1260.58 54.5413 1260.64 54.9253 1260.75 55.272C1260.86 55.6133 1261.02 55.904 1261.23 56.144C1261.44 56.384 1261.7 56.5707 1262.01 56.704C1262.31 56.832 1262.65 56.896 1263.03 56.896ZM1272.14 58.24C1271.5 58.24 1270.92 58.1307 1270.41 57.912C1269.9 57.688 1269.47 57.376 1269.11 56.976C1268.76 56.576 1268.49 56.096 1268.3 55.536C1268.11 54.976 1268.02 54.3573 1268.02 53.68C1268.02 52.992 1268.11 52.368 1268.3 51.808C1268.5 51.248 1268.77 50.7707 1269.12 50.376C1269.48 49.976 1269.91 49.6667 1270.42 49.448C1270.94 49.2293 1271.51 49.12 1272.15 49.12C1272.61 49.12 1273.04 49.1787 1273.43 49.296C1273.83 49.4133 1274.19 49.5813 1274.5 49.8C1274.82 50.0133 1275.1 50.2747 1275.32 50.584C1275.55 50.8933 1275.72 51.2427 1275.83 51.632L1274.42 52.056C1274.24 51.5547 1273.94 51.1653 1273.54 50.888C1273.14 50.6107 1272.67 50.472 1272.14 50.472C1271.71 50.472 1271.33 50.5493 1271.01 50.704C1270.68 50.8533 1270.41 51.0667 1270.19 51.344C1269.97 51.6213 1269.81 51.9573 1269.7 52.352C1269.58 52.7467 1269.53 53.1893 1269.53 53.68C1269.53 54.16 1269.58 54.5973 1269.69 54.992C1269.8 55.3867 1269.96 55.7253 1270.18 56.008C1270.4 56.2853 1270.67 56.5013 1271 56.656C1271.32 56.8107 1271.7 56.888 1272.14 56.888C1272.71 56.888 1273.18 56.7573 1273.54 56.496C1273.92 56.2347 1274.2 55.8613 1274.39 55.376L1275.83 55.752C1275.53 56.5627 1275.06 57.1813 1274.42 57.608C1273.79 58.0293 1273.03 58.24 1272.14 58.24ZM1278.11 61.84L1279.53 57.968L1276.03 49.36H1277.53L1280.22 56.16L1282.75 49.36H1284.2L1279.49 61.84H1278.11ZM1284.56 56.656H1285.4C1285.54 56.496 1285.65 56.2773 1285.73 56C1285.81 55.7173 1285.88 55.3947 1285.93 55.032C1285.98 54.6693 1286.01 54.2773 1286.02 53.856C1286.04 53.4293 1286.05 52.992 1286.05 52.544V49.36H1292.49V56.656H1293.61V59.84H1292.18V58H1285.98V59.84H1284.56V56.656ZM1291.06 56.656V50.704H1287.38V53.296C1287.38 53.6587 1287.37 54.008 1287.35 54.344C1287.33 54.6747 1287.3 54.9867 1287.26 55.28C1287.21 55.568 1287.16 55.8293 1287.1 56.064C1287.05 56.2987 1286.99 56.496 1286.91 56.656H1291.06ZM1301.97 49.36V58H1300.54V51.592L1296.31 58H1294.89V49.36H1296.31V55.768L1300.54 49.36H1301.97ZM1306.14 58V50.704H1303.17V49.36H1310.53V50.704H1307.56V58H1306.14ZM1315.6 58H1311.72V49.36H1313.15V52.536H1315.6C1316.11 52.536 1316.55 52.6053 1316.93 52.744C1317.32 52.8827 1317.63 53.0747 1317.88 53.32C1318.14 53.56 1318.33 53.848 1318.45 54.184C1318.58 54.5147 1318.64 54.8747 1318.64 55.264C1318.64 55.6533 1318.58 56.016 1318.45 56.352C1318.33 56.6827 1318.14 56.9707 1317.88 57.216C1317.63 57.4613 1317.32 57.6533 1316.93 57.792C1316.55 57.9307 1316.11 58 1315.6 58ZM1315.41 56.792C1315.72 56.792 1315.99 56.7547 1316.21 56.68C1316.44 56.6 1316.63 56.4933 1316.78 56.36C1316.93 56.2213 1317.04 56.0587 1317.11 55.872C1317.18 55.6853 1317.22 55.4827 1317.22 55.264C1317.22 55.0453 1317.18 54.8427 1317.11 54.656C1317.04 54.4693 1316.93 54.3093 1316.78 54.176C1316.63 54.0373 1316.44 53.9307 1316.21 53.856C1315.99 53.776 1315.72 53.736 1315.41 53.736H1313.15V56.792H1315.41ZM1322.97 58V49.36H1329.97V58H1328.54V50.704H1324.39V58H1322.97ZM1331.89 61.84V49.36H1333.31V50.712C1333.59 50.2107 1333.96 49.8213 1334.43 49.544C1334.91 49.2613 1335.5 49.12 1336.2 49.12C1336.8 49.12 1337.34 49.232 1337.82 49.456C1338.31 49.68 1338.72 49.9947 1339.06 50.4C1339.41 50.8 1339.67 51.28 1339.85 51.84C1340.04 52.3947 1340.13 53.0053 1340.13 53.672C1340.13 54.3493 1340.04 54.968 1339.85 55.528C1339.66 56.088 1339.4 56.5707 1339.06 56.976C1338.72 57.376 1338.3 57.688 1337.82 57.912C1337.33 58.1307 1336.79 58.24 1336.2 58.24C1335.5 58.24 1334.91 58.0987 1334.43 57.816C1333.96 57.5333 1333.59 57.144 1333.31 56.648V61.84H1331.89ZM1335.96 56.888C1336.41 56.888 1336.8 56.8107 1337.13 56.656C1337.46 56.496 1337.73 56.2747 1337.95 55.992C1338.18 55.7093 1338.34 55.3707 1338.45 54.976C1338.56 54.5813 1338.62 54.1467 1338.62 53.672C1338.62 53.1867 1338.56 52.7467 1338.45 52.352C1338.34 51.9573 1338.17 51.6213 1337.94 51.344C1337.73 51.0667 1337.45 50.8533 1337.12 50.704C1336.79 50.5493 1336.4 50.472 1335.96 50.472C1335.51 50.472 1335.12 50.552 1334.78 50.712C1334.45 50.8667 1334.18 51.0853 1333.96 51.368C1333.74 51.6453 1333.58 51.9813 1333.47 52.376C1333.37 52.7653 1333.31 53.1973 1333.31 53.672C1333.31 54.1573 1333.37 54.6 1333.48 55C1333.59 55.3947 1333.76 55.7333 1333.98 56.016C1334.2 56.2933 1334.48 56.5093 1334.81 56.664C1335.14 56.8133 1335.52 56.888 1335.96 56.888ZM1345.25 58.24C1344.61 58.24 1344.03 58.128 1343.51 57.904C1343 57.68 1342.56 57.368 1342.2 56.968C1341.84 56.5627 1341.57 56.08 1341.38 55.52C1341.18 54.96 1341.09 54.344 1341.09 53.672C1341.09 52.9947 1341.18 52.3787 1341.38 51.824C1341.57 51.264 1341.85 50.784 1342.21 50.384C1342.57 49.984 1343.01 49.6747 1343.52 49.456C1344.04 49.232 1344.61 49.12 1345.25 49.12C1345.89 49.12 1346.47 49.232 1346.98 49.456C1347.5 49.6747 1347.94 49.9867 1348.3 50.392C1348.66 50.792 1348.94 51.272 1349.13 51.832C1349.32 52.3867 1349.42 53 1349.42 53.672C1349.42 54.3493 1349.32 54.968 1349.12 55.528C1348.93 56.088 1348.65 56.5707 1348.29 56.976C1347.93 57.376 1347.49 57.688 1346.98 57.912C1346.46 58.1307 1345.89 58.24 1345.25 58.24ZM1345.25 56.888C1345.69 56.888 1346.07 56.8133 1346.4 56.664C1346.73 56.5093 1347.01 56.2933 1347.23 56.016C1347.46 55.7333 1347.62 55.3947 1347.74 55C1347.85 54.6 1347.9 54.1573 1347.9 53.672C1347.9 53.176 1347.85 52.7307 1347.74 52.336C1347.62 51.9413 1347.46 51.6053 1347.23 51.328C1347.01 51.0507 1346.73 50.84 1346.4 50.696C1346.07 50.5467 1345.69 50.472 1345.25 50.472C1344.81 50.472 1344.42 50.5467 1344.09 50.696C1343.76 50.8453 1343.48 51.0613 1343.26 51.344C1343.05 51.6213 1342.88 51.9573 1342.77 52.352C1342.66 52.7413 1342.6 53.1813 1342.6 53.672C1342.6 54.168 1342.66 54.6133 1342.77 55.008C1342.89 55.4027 1343.06 55.7413 1343.28 56.024C1343.5 56.3013 1343.78 56.5147 1344.1 56.664C1344.44 56.8133 1344.82 56.888 1345.25 56.888ZM1354.57 56.904C1355.17 56.904 1355.66 56.7733 1356.06 56.512C1356.45 56.2507 1356.77 55.8747 1357.01 55.384L1358.39 55.84C1358.04 56.6133 1357.54 57.208 1356.88 57.624C1356.23 58.0347 1355.46 58.24 1354.57 58.24C1353.94 58.24 1353.37 58.1307 1352.85 57.912C1352.33 57.6933 1351.89 57.3867 1351.52 56.992C1351.16 56.592 1350.88 56.112 1350.67 55.552C1350.48 54.992 1350.38 54.368 1350.38 53.68C1350.38 52.9867 1350.48 52.36 1350.67 51.8C1350.87 51.2347 1351.15 50.7547 1351.51 50.36C1351.88 49.9653 1352.32 49.6613 1352.83 49.448C1353.35 49.2293 1353.91 49.12 1354.54 49.12C1355.2 49.12 1355.79 49.2347 1356.3 49.464C1356.81 49.6933 1357.24 50.0213 1357.58 50.448C1357.92 50.8747 1358.17 51.3947 1358.33 52.008C1358.5 52.6213 1358.56 53.312 1358.53 54.08H1351.91C1351.94 54.528 1352.02 54.928 1352.15 55.28C1352.29 55.6267 1352.48 55.92 1352.71 56.16C1352.94 56.4 1353.2 56.584 1353.51 56.712C1353.83 56.84 1354.18 56.904 1354.57 56.904ZM1357.05 52.936C1356.99 52.1253 1356.74 51.504 1356.31 51.072C1355.87 50.6347 1355.28 50.416 1354.54 50.416C1353.8 50.416 1353.21 50.6347 1352.76 51.072C1352.32 51.5093 1352.04 52.1307 1351.94 52.936H1357.05ZM1359.98 49.36H1361.41V53.52L1365.03 49.36H1366.88L1363.06 53.68L1367.33 58H1365.34L1361.41 53.84V58H1359.98V49.36ZM1370.06 58V50.704H1367.09V49.36H1374.45V50.704H1371.48V58H1370.06Z" fill="white"/>
<path d="M1388.7 51.5533H1399.2M1394 56.8566L1399.3 51.5533L1394 46.25" stroke="white" stroke-width="1.5" stroke-linecap="round" stroke-linejoin="round"/>
<path d="M520.62 58V46.48H529.3V58H527.868V47.832H522.052V58H520.62ZM531.222 61.84V49.36H532.646V50.712C532.923 50.2107 533.297 49.8213 533.766 49.544C534.241 49.2613 534.83 49.12 535.534 49.12C536.131 49.12 536.673 49.232 537.158 49.456C537.643 49.68 538.057 49.9947 538.398 50.4C538.739 50.8 539.001 51.28 539.182 51.84C539.369 52.3947 539.462 53.0053 539.462 53.672C539.462 54.3493 539.369 54.968 539.182 55.528C538.995 56.088 538.731 56.5707 538.39 56.976C538.049 57.376 537.635 57.688 537.15 57.912C536.665 58.1307 536.126 58.24 535.534 58.24C534.83 58.24 534.241 58.0987 533.766 57.816C533.297 57.5333 532.923 57.144 532.646 56.648V61.84H531.222ZM535.294 56.888C535.742 56.888 536.131 56.8107 536.462 56.656C536.793 56.496 537.067 56.2747 537.286 55.992C537.51 55.7093 537.675 55.3707 537.782 54.976C537.894 54.5813 537.95 54.1467 537.95 53.672C537.95 53.1867 537.894 52.7467 537.782 52.352C537.67 51.9573 537.502 51.6213 537.278 51.344C537.059 51.0667 536.785 50.8533 536.454 50.704C536.123 50.5493 535.737 50.472 535.294 50.472C534.841 50.472 534.449 50.552 534.118 50.712C533.787 50.8667 533.513 51.0853 533.294 51.368C533.075 51.6453 532.913 51.9813 532.806 52.376C532.699 52.7653 532.646 53.1973 532.646 53.672C532.646 54.1573 532.702 54.6 532.814 55C532.926 55.3947 533.091 55.7333 533.31 56.016C533.534 56.2933 533.811 56.5093 534.142 56.664C534.473 56.8133 534.857 56.888 535.294 56.888ZM544.582 58.24C543.942 58.24 543.363 58.128 542.846 57.904C542.334 57.68 541.897 57.368 541.534 56.968C541.177 56.5627 540.902 56.08 540.71 55.52C540.518 54.96 540.422 54.344 540.422 53.672C540.422 52.9947 540.518 52.3787 540.71 51.824C540.907 51.264 541.185 50.784 541.542 50.384C541.905 49.984 542.342 49.6747 542.854 49.456C543.371 49.232 543.947 49.12 544.582 49.12C545.227 49.12 545.806 49.232 546.318 49.456C546.835 49.6747 547.273 49.9867 547.63 50.392C547.993 50.792 548.27 51.272 548.462 51.832C548.654 52.3867 548.75 53 548.75 53.672C548.75 54.3493 548.651 54.968 548.454 55.528C548.262 56.088 547.985 56.5707 547.622 56.976C547.265 57.376 546.827 57.688 546.31 57.912C545.798 58.1307 545.222 58.24 544.582 58.24ZM544.582 56.888C545.019 56.888 545.403 56.8133 545.734 56.664C546.065 56.5093 546.342 56.2933 546.566 56.016C546.79 55.7333 546.958 55.3947 547.07 55C547.182 54.6 547.238 54.1573 547.238 53.672C547.238 53.176 547.182 52.7307 547.07 52.336C546.958 51.9413 546.79 51.6053 546.566 51.328C546.342 51.0507 546.065 50.84 545.734 50.696C545.403 50.5467 545.019 50.472 544.582 50.472C544.145 50.472 543.758 50.5467 543.422 50.696C543.091 50.8453 542.817 51.0613 542.598 51.344C542.379 51.6213 542.214 51.9573 542.102 52.352C541.99 52.7413 541.934 53.1813 541.934 53.672C541.934 54.168 541.99 54.6133 542.102 55.008C542.219 55.4027 542.39 55.7413 542.614 56.024C542.838 56.3013 543.113 56.5147 543.438 56.664C543.769 56.8133 544.15 56.888 544.582 56.888ZM553.903 56.904C554.501 56.904 554.997 56.7733 555.391 56.512C555.786 56.2507 556.103 55.8747 556.343 55.384L557.719 55.84C557.378 56.6133 556.877 57.208 556.215 57.624C555.559 58.0347 554.789 58.24 553.903 58.24C553.274 58.24 552.701 58.1307 552.183 57.912C551.666 57.6933 551.223 57.3867 550.855 56.992C550.493 56.592 550.21 56.112 550.007 55.552C549.81 54.992 549.711 54.368 549.711 53.68C549.711 52.9867 549.81 52.36 550.007 51.8C550.205 51.2347 550.485 50.7547 550.847 50.36C551.215 49.9653 551.655 49.6613 552.167 49.448C552.679 49.2293 553.247 49.12 553.871 49.12C554.533 49.12 555.119 49.2347 555.631 49.464C556.143 49.6933 556.57 50.0213 556.911 50.448C557.253 50.8747 557.503 51.3947 557.663 52.008C557.829 52.6213 557.895 53.312 557.863 54.08H551.239C551.271 54.528 551.354 54.928 551.487 55.28C551.626 55.6267 551.81 55.92 552.039 56.16C552.269 56.4 552.538 56.584 552.847 56.712C553.162 56.84 553.514 56.904 553.903 56.904ZM556.383 52.936C556.319 52.1253 556.071 51.504 555.639 51.072C555.207 50.6347 554.618 50.416 553.871 50.416C553.135 50.416 552.543 50.6347 552.095 51.072C551.653 51.5093 551.378 52.1307 551.271 52.936H556.383ZM559.316 49.36H560.74V53.52L564.364 49.36H566.212L562.396 53.68L566.66 58H564.668L560.74 53.84V58H559.316V49.36ZM569.393 58V50.704H566.425V49.36H573.785V50.704H570.817V58H569.393ZM582.893 58V49.36H584.317V58H582.893ZM578.853 58H574.981V49.36H576.405V52.536H578.853C579.365 52.536 579.811 52.6053 580.189 52.744C580.573 52.8827 580.891 53.0747 581.141 53.32C581.397 53.56 581.589 53.848 581.717 54.184C581.845 54.5147 581.909 54.8747 581.909 55.264C581.909 55.6533 581.845 56.016 581.717 56.352C581.589 56.6827 581.397 56.9707 581.141 57.216C580.891 57.4613 580.573 57.6533 580.189 57.792C579.811 57.9307 579.365 58 578.853 58ZM578.669 56.792C578.979 56.792 579.245 56.7547 579.469 56.68C579.699 56.6 579.888 56.4933 580.037 56.36C580.187 56.2213 580.296 56.0587 580.365 55.872C580.44 55.6853 580.477 55.4827 580.477 55.264C580.477 55.0453 580.44 54.8427 580.365 54.656C580.296 54.4693 580.187 54.3093 580.037 54.176C579.888 54.0373 579.699 53.9307 579.469 53.856C579.245 53.776 578.979 53.736 578.669 53.736H576.405V56.792H578.669Z" fill="white"/>
<path d="M613.332 58H611.796L613.628 54.152L609.74 46.48H611.316L614.364 52.616L617.292 46.48H618.852L613.332 58ZM622.206 58.24C621.566 58.24 620.99 58.1307 620.478 57.912C619.971 57.688 619.539 57.376 619.182 56.976C618.83 56.576 618.558 56.096 618.366 55.536C618.179 54.976 618.086 54.3573 618.086 53.68C618.086 52.992 618.182 52.368 618.374 51.808C618.566 51.248 618.838 50.7707 619.19 50.376C619.547 49.976 619.982 49.6667 620.494 49.448C621.006 49.2293 621.582 49.12 622.222 49.12C622.68 49.12 623.107 49.1787 623.502 49.296C623.902 49.4133 624.259 49.5813 624.574 49.8C624.894 50.0133 625.166 50.2747 625.39 50.584C625.619 50.8933 625.79 51.2427 625.902 51.632L624.494 52.056C624.307 51.5547 624.011 51.1653 623.606 50.888C623.206 50.6107 622.739 50.472 622.206 50.472C621.779 50.472 621.403 50.5493 621.078 50.704C620.752 50.8533 620.48 51.0667 620.262 51.344C620.043 51.6213 619.878 51.9573 619.766 52.352C619.654 52.7467 619.598 53.1893 619.598 53.68C619.598 54.16 619.651 54.5973 619.758 54.992C619.87 55.3867 620.035 55.7253 620.254 56.008C620.472 56.2853 620.744 56.5013 621.07 56.656C621.395 56.8107 621.774 56.888 622.206 56.888C622.776 56.888 623.246 56.7573 623.614 56.496C623.987 56.2347 624.27 55.8613 624.462 55.376L625.902 55.752C625.598 56.5627 625.128 57.1813 624.494 57.608C623.864 58.0293 623.102 58.24 622.206 58.24ZM626.18 56.872C626.319 56.9147 626.439 56.936 626.54 56.936C626.764 56.936 626.948 56.856 627.092 56.696C627.241 56.536 627.359 56.304 627.444 56C627.535 55.696 627.599 55.3253 627.636 54.888C627.673 54.4453 627.692 53.944 627.692 53.384V49.36H634.052V58H632.628V50.704H629.028V53.784C629.028 55.3147 628.855 56.44 628.508 57.16C628.161 57.88 627.647 58.24 626.964 58.24C626.713 58.24 626.452 58.1973 626.18 58.112V56.872ZM637.173 61.84L638.597 57.968L635.093 49.36H636.589L639.285 56.16L641.813 49.36H643.261L638.557 61.84H637.173ZM644.262 58V49.36H649.902V50.704H645.694V58H644.262ZM658.17 49.36V58H656.746V51.592L652.514 58H651.09V49.36H652.514V55.768L656.746 49.36H658.17Z" fill="white"/>
<path d="M684.62 46.48H686.052V51.912L691.092 46.48H692.884L687.652 52.072L693.292 58H691.452L686.052 52.352V58H684.62V46.48ZM697.136 58.24C696.496 58.24 695.918 58.128 695.4 57.904C694.888 57.68 694.451 57.368 694.088 56.968C693.731 56.5627 693.456 56.08 693.264 55.52C693.072 54.96 692.976 54.344 692.976 53.672C692.976 52.9947 693.072 52.3787 693.264 51.824C693.462 51.264 693.739 50.784 694.096 50.384C694.459 49.984 694.896 49.6747 695.408 49.456C695.926 49.232 696.502 49.12 697.136 49.12C697.782 49.12 698.36 49.232 698.872 49.456C699.39 49.6747 699.827 49.9867 700.184 50.392C700.547 50.792 700.824 51.272 701.016 51.832C701.208 52.3867 701.304 53 701.304 53.672C701.304 54.3493 701.206 54.968 701.008 55.528C700.816 56.088 700.539 56.5707 700.176 56.976C699.819 57.376 699.382 57.688 698.864 57.912C698.352 58.1307 697.776 58.24 697.136 58.24ZM697.136 56.888C697.574 56.888 697.958 56.8133 698.288 56.664C698.619 56.5093 698.896 56.2933 699.12 56.016C699.344 55.7333 699.512 55.3947 699.624 55C699.736 54.6 699.792 54.1573 699.792 53.672C699.792 53.176 699.736 52.7307 699.624 52.336C699.512 51.9413 699.344 51.6053 699.12 51.328C698.896 51.0507 698.619 50.84 698.288 50.696C697.958 50.5467 697.574 50.472 697.136 50.472C696.699 50.472 696.312 50.5467 695.976 50.696C695.646 50.8453 695.371 51.0613 695.152 51.344C694.934 51.6213 694.768 51.9573 694.656 52.352C694.544 52.7413 694.488 53.1813 694.488 53.672C694.488 54.168 694.544 54.6133 694.656 55.008C694.774 55.4027 694.944 55.7413 695.168 56.024C695.392 56.3013 695.667 56.5147 695.992 56.664C696.323 56.8133 696.704 56.888 697.136 56.888ZM702.738 58V49.36H704.162L707.082 55.088L710.002 49.36H711.426V58H710.002V52.136L707.682 56.712H706.482L704.162 52.136V58H702.738ZM716.756 49.12C717.934 49.12 718.814 49.424 719.396 50.032C719.977 50.6347 720.268 51.5493 720.268 52.776V58H718.844V56.64C718.54 57.168 718.134 57.568 717.628 57.84C717.126 58.1067 716.526 58.24 715.828 58.24C715.374 58.24 714.964 58.1813 714.596 58.064C714.233 57.9467 713.924 57.7787 713.668 57.56C713.412 57.336 713.214 57.0693 713.076 56.76C712.937 56.4453 712.868 56.0933 712.868 55.704C712.868 55.2613 712.948 54.8773 713.108 54.552C713.273 54.2267 713.505 53.952 713.804 53.728C714.108 53.504 714.473 53.3253 714.9 53.192C715.332 53.0587 715.817 52.9573 716.356 52.888L718.844 52.584C718.838 51.8267 718.665 51.2747 718.324 50.928C717.982 50.5813 717.454 50.408 716.74 50.408C716.126 50.408 715.638 50.528 715.276 50.768C714.913 51.008 714.66 51.3813 714.516 51.888L713.188 51.552C713.401 50.7573 713.812 50.1547 714.42 49.744C715.033 49.328 715.812 49.12 716.756 49.12ZM716.516 53.984C715.726 54.0853 715.156 54.264 714.804 54.52C714.452 54.7707 714.276 55.1333 714.276 55.608C714.276 56.072 714.43 56.4213 714.74 56.656C715.049 56.8907 715.51 57.008 716.124 57.008C716.46 57.008 716.769 56.9627 717.052 56.872C717.34 56.776 717.593 56.6427 717.812 56.472C718.036 56.3013 718.222 56.096 718.372 55.856C718.526 55.616 718.638 55.3493 718.708 55.056C718.777 54.8373 718.817 54.608 718.828 54.368C718.838 54.128 718.844 53.912 718.844 53.72V53.696L716.516 53.984ZM722.02 58V49.36H723.444V53.008H727.988V49.36H729.412V58H727.988V54.352H723.444V58H722.02ZM730.693 56.656H731.533C731.671 56.496 731.781 56.2773 731.861 56C731.946 55.7173 732.013 55.3947 732.061 55.032C732.109 54.6693 732.141 54.2773 732.157 53.856C732.173 53.4293 732.181 52.992 732.181 52.544V49.36H738.621V56.656H739.741V59.84H738.317V58H732.117V59.84H730.693V56.656ZM737.197 56.656V50.704H733.517V53.296C733.517 53.6587 733.506 54.008 733.485 54.344C733.463 54.6747 733.431 54.9867 733.389 55.28C733.346 55.568 733.295 55.8293 733.237 56.064C733.183 56.2987 733.119 56.496 733.045 56.656H737.197ZM744.436 49.12C745.615 49.12 746.495 49.424 747.076 50.032C747.657 50.6347 747.948 51.5493 747.948 52.776V58H746.524V56.64C746.22 57.168 745.815 57.568 745.308 57.84C744.807 58.1067 744.207 58.24 743.508 58.24C743.055 58.24 742.644 58.1813 742.276 58.064C741.913 57.9467 741.604 57.7787 741.348 57.56C741.092 57.336 740.895 57.0693 740.756 56.76C740.617 56.4453 740.548 56.0933 740.548 55.704C740.548 55.2613 740.628 54.8773 740.788 54.552C740.953 54.2267 741.185 53.952 741.484 53.728C741.788 53.504 742.153 53.3253 742.58 53.192C743.012 53.0587 743.497 52.9573 744.036 52.888L746.524 52.584C746.519 51.8267 746.345 51.2747 746.004 50.928C745.663 50.5813 745.135 50.408 744.42 50.408C743.807 50.408 743.319 50.528 742.956 50.768C742.593 51.008 742.34 51.3813 742.196 51.888L740.868 51.552C741.081 50.7573 741.492 50.1547 742.1 49.744C742.713 49.328 743.492 49.12 744.436 49.12ZM744.196 53.984C743.407 54.0853 742.836 54.264 742.484 54.52C742.132 54.7707 741.956 55.1333 741.956 55.608C741.956 56.072 742.111 56.4213 742.42 56.656C742.729 56.8907 743.191 57.008 743.804 57.008C744.14 57.008 744.449 56.9627 744.732 56.872C745.02 56.776 745.273 56.6427 745.492 56.472C745.716 56.3013 745.903 56.096 746.052 55.856C746.207 55.616 746.319 55.3493 746.388 55.056C746.457 54.8373 746.497 54.608 746.508 54.368C746.519 54.128 746.524 53.912 746.524 53.72V53.696L744.196 53.984Z" fill="white"/>
<path d="M779.356 58.24C778.492 58.24 777.727 58.0933 777.06 57.8C776.393 57.5067 775.831 57.096 775.372 56.568C774.919 56.04 774.572 55.408 774.332 54.672C774.097 53.936 773.98 53.1253 773.98 52.24C773.98 51.3493 774.097 50.536 774.332 49.8C774.572 49.064 774.919 48.432 775.372 47.904C775.831 47.376 776.393 46.968 777.06 46.68C777.727 46.3867 778.492 46.24 779.356 46.24C780.023 46.24 780.631 46.328 781.18 46.504C781.729 46.68 782.217 46.9307 782.644 47.256C783.071 47.5813 783.433 47.976 783.732 48.44C784.031 48.904 784.263 49.4213 784.428 49.992L782.98 50.376C782.863 49.9493 782.697 49.5653 782.484 49.224C782.276 48.8773 782.02 48.584 781.716 48.344C781.417 48.104 781.071 47.92 780.676 47.792C780.281 47.664 779.841 47.6 779.356 47.6C778.721 47.6 778.161 47.712 777.676 47.936C777.196 48.16 776.793 48.4773 776.468 48.888C776.143 49.2933 775.897 49.7813 775.732 50.352C775.567 50.9227 775.484 51.552 775.484 52.24C775.484 52.928 775.564 53.5573 775.724 54.128C775.889 54.6987 776.132 55.1893 776.452 55.6C776.777 56.0053 777.18 56.32 777.66 56.544C778.145 56.768 778.711 56.88 779.356 56.88C779.841 56.88 780.281 56.816 780.676 56.688C781.071 56.56 781.417 56.376 781.716 56.136C782.02 55.896 782.276 55.6053 782.484 55.264C782.697 54.9173 782.863 54.5307 782.98 54.104L784.428 54.488C784.263 55.0587 784.031 55.576 783.732 56.04C783.433 56.504 783.071 56.8987 782.644 57.224C782.217 57.5493 781.729 57.8 781.18 57.976C780.631 58.152 780.023 58.24 779.356 58.24ZM788.111 58V50.704H785.143V49.36H792.503V50.704H789.535V58H788.111ZM796.826 49.12C798.004 49.12 798.884 49.424 799.466 50.032C800.047 50.6347 800.338 51.5493 800.338 52.776V58H798.914V56.64C798.61 57.168 798.204 57.568 797.698 57.84C797.196 58.1067 796.596 58.24 795.898 58.24C795.444 58.24 795.034 58.1813 794.666 58.064C794.303 57.9467 793.994 57.7787 793.738 57.56C793.482 57.336 793.284 57.0693 793.146 56.76C793.007 56.4453 792.938 56.0933 792.938 55.704C792.938 55.2613 793.018 54.8773 793.178 54.552C793.343 54.2267 793.575 53.952 793.874 53.728C794.178 53.504 794.543 53.3253 794.97 53.192C795.402 53.0587 795.887 52.9573 796.426 52.888L798.914 52.584C798.908 51.8267 798.735 51.2747 798.394 50.928C798.052 50.5813 797.524 50.408 796.81 50.408C796.196 50.408 795.708 50.528 795.346 50.768C794.983 51.008 794.73 51.3813 794.586 51.888L793.258 51.552C793.471 50.7573 793.882 50.1547 794.49 49.744C795.103 49.328 795.882 49.12 796.826 49.12ZM796.586 53.984C795.796 54.0853 795.226 54.264 794.874 54.52C794.522 54.7707 794.346 55.1333 794.346 55.608C794.346 56.072 794.5 56.4213 794.81 56.656C795.119 56.8907 795.58 57.008 796.194 57.008C796.53 57.008 796.839 56.9627 797.122 56.872C797.41 56.776 797.663 56.6427 797.882 56.472C798.106 56.3013 798.292 56.096 798.442 55.856C798.596 55.616 798.708 55.3493 798.778 55.056C798.847 54.8373 798.887 54.608 798.898 54.368C798.908 54.128 798.914 53.912 798.914 53.72V53.696L796.586 53.984ZM804.346 58V50.704H801.378V49.36H808.738V50.704H805.77V58H804.346ZM813.806 58H809.934V49.36H811.358V52.536H813.806C814.318 52.536 814.763 52.6053 815.142 52.744C815.526 52.8827 815.843 53.0747 816.094 53.32C816.35 53.56 816.539 53.848 816.662 54.184C816.79 54.5147 816.854 54.8747 816.854 55.264C816.854 55.6533 816.79 56.016 816.662 56.352C816.539 56.6827 816.35 56.9707 816.094 57.216C815.843 57.4613 815.526 57.6533 815.142 57.792C814.763 57.9307 814.318 58 813.806 58ZM813.622 56.792C813.931 56.792 814.198 56.7547 814.422 56.68C814.651 56.6 814.84 56.4933 814.99 56.36C815.139 56.2213 815.248 56.0587 815.318 55.872C815.392 55.6853 815.43 55.4827 815.43 55.264C815.43 55.0453 815.392 54.8427 815.318 54.656C815.248 54.4693 815.139 54.3093 814.99 54.176C814.84 54.0373 814.651 53.9307 814.422 53.856C814.198 53.776 813.931 53.736 813.622 53.736H811.358V56.792H813.622ZM825.139 49.36V58H823.715V51.592L819.483 58H818.059V49.36H819.483V55.768L823.715 49.36H825.139Z" fill="white"/>
<path d="M851.62 46.48H853.052V51.912L858.092 46.48H859.884L854.652 52.072L860.292 58H858.452L853.052 52.352V58H851.62V46.48ZM864.136 58.24C863.496 58.24 862.918 58.128 862.4 57.904C861.888 57.68 861.451 57.368 861.088 56.968C860.731 56.5627 860.456 56.08 860.264 55.52C860.072 54.96 859.976 54.344 859.976 53.672C859.976 52.9947 860.072 52.3787 860.264 51.824C860.462 51.264 860.739 50.784 861.096 50.384C861.459 49.984 861.896 49.6747 862.408 49.456C862.926 49.232 863.502 49.12 864.136 49.12C864.782 49.12 865.36 49.232 865.872 49.456C866.39 49.6747 866.827 49.9867 867.184 50.392C867.547 50.792 867.824 51.272 868.016 51.832C868.208 52.3867 868.304 53 868.304 53.672C868.304 54.3493 868.206 54.968 868.008 55.528C867.816 56.088 867.539 56.5707 867.176 56.976C866.819 57.376 866.382 57.688 865.864 57.912C865.352 58.1307 864.776 58.24 864.136 58.24ZM864.136 56.888C864.574 56.888 864.958 56.8133 865.288 56.664C865.619 56.5093 865.896 56.2933 866.12 56.016C866.344 55.7333 866.512 55.3947 866.624 55C866.736 54.6 866.792 54.1573 866.792 53.672C866.792 53.176 866.736 52.7307 866.624 52.336C866.512 51.9413 866.344 51.6053 866.12 51.328C865.896 51.0507 865.619 50.84 865.288 50.696C864.958 50.5467 864.574 50.472 864.136 50.472C863.699 50.472 863.312 50.5467 862.976 50.696C862.646 50.8453 862.371 51.0613 862.152 51.344C861.934 51.6213 861.768 51.9573 861.656 52.352C861.544 52.7413 861.488 53.1813 861.488 53.672C861.488 54.168 861.544 54.6133 861.656 55.008C861.774 55.4027 861.944 55.7413 862.168 56.024C862.392 56.3013 862.667 56.5147 862.992 56.664C863.323 56.8133 863.704 56.888 864.136 56.888ZM869.738 58V49.36H871.162V53.008H875.706V49.36H877.13V58H875.706V54.352H871.162V58H869.738ZM881.299 58V50.704H878.331V49.36H885.691V50.704H882.723V58H881.299ZM890.014 49.12C891.192 49.12 892.072 49.424 892.654 50.032C893.235 50.6347 893.526 51.5493 893.526 52.776V58H892.102V56.64C891.798 57.168 891.392 57.568 890.886 57.84C890.384 58.1067 889.784 58.24 889.086 58.24C888.632 58.24 888.222 58.1813 887.854 58.064C887.491 57.9467 887.182 57.7787 886.926 57.56C886.67 57.336 886.472 57.0693 886.334 56.76C886.195 56.4453 886.126 56.0933 886.126 55.704C886.126 55.2613 886.206 54.8773 886.366 54.552C886.531 54.2267 886.763 53.952 887.062 53.728C887.366 53.504 887.731 53.3253 888.158 53.192C888.59 53.0587 889.075 52.9573 889.614 52.888L892.102 52.584C892.096 51.8267 891.923 51.2747 891.582 50.928C891.24 50.5813 890.712 50.408 889.998 50.408C889.384 50.408 888.896 50.528 888.534 50.768C888.171 51.008 887.918 51.3813 887.774 51.888L886.446 51.552C886.659 50.7573 887.07 50.1547 887.678 49.744C888.291 49.328 889.07 49.12 890.014 49.12ZM889.774 53.984C888.984 54.0853 888.414 54.264 888.062 54.52C887.71 54.7707 887.534 55.1333 887.534 55.608C887.534 56.072 887.688 56.4213 887.998 56.656C888.307 56.8907 888.768 57.008 889.382 57.008C889.718 57.008 890.027 56.9627 890.31 56.872C890.598 56.776 890.851 56.6427 891.07 56.472C891.294 56.3013 891.48 56.096 891.63 55.856C891.784 55.616 891.896 55.3493 891.966 55.056C892.035 54.8373 892.075 54.608 892.086 54.368C892.096 54.128 892.102 53.912 892.102 53.72V53.696L889.774 53.984ZM895.278 49.36H896.702V53.52L900.326 49.36H902.174L898.358 53.68L902.622 58H900.63L896.702 53.84V58H895.278V49.36ZM905.354 58V50.704H902.386V49.36H909.746V50.704H906.778V58H905.354ZM918.854 58V49.36H920.278V58H918.854ZM914.814 58H910.942V49.36H912.366V52.536H914.814C915.326 52.536 915.772 52.6053 916.15 52.744C916.534 52.8827 916.852 53.0747 917.102 53.32C917.358 53.56 917.55 53.848 917.678 54.184C917.806 54.5147 917.87 54.8747 917.87 55.264C917.87 55.6533 917.806 56.016 917.678 56.352C917.55 56.6827 917.358 56.9707 917.102 57.216C916.852 57.4613 916.534 57.6533 916.15 57.792C915.772 57.9307 915.326 58 914.814 58ZM914.63 56.792C914.94 56.792 915.206 56.7547 915.43 56.68C915.66 56.6 915.849 56.4933 915.998 56.36C916.148 56.2213 916.257 56.0587 916.326 55.872C916.401 55.6853 916.438 55.4827 916.438 55.264C916.438 55.0453 916.401 54.8427 916.326 54.656C916.257 54.4693 916.148 54.3093 915.998 54.176C915.849 54.0373 915.66 53.9307 915.43 53.856C915.206 53.776 914.94 53.736 914.63 53.736H912.366V56.792H914.63Z" fill="white"/>
<path d="M34.1809 50.8417V50.0978C34.1809 46.3162 35.4827 43.2785 38.0865 40.9847C40.6902 38.691 44.1231 37.5441 48.3852 37.5441C52.3528 37.5441 55.3827 38.4275 57.475 40.1943C59.5828 41.9456 60.6832 43.9604 60.7761 46.2387L60.8226 46.6804H56.7078L56.6846 46.3317C56.6536 44.9213 55.9561 43.7202 54.5923 42.7283C53.2284 41.7364 51.1516 41.2405 48.3619 41.2405C45.1538 41.2405 42.6973 42.0619 40.9924 43.7047C39.2876 45.3475 38.4352 47.4786 38.4352 50.0978V50.8417C38.4352 53.4764 39.2876 55.6152 40.9924 57.2581C42.7128 58.8854 45.1693 59.6991 48.3619 59.6991C51.1516 59.6991 53.2362 59.1954 54.6155 58.188C55.9949 57.1651 56.6846 55.9484 56.6846 54.5381V54.2591H60.7761V54.5381C60.7761 56.8164 59.699 58.8621 57.5447 60.6755C55.4059 62.4888 52.345 63.3954 48.3619 63.3954C44.1154 63.3954 40.6902 62.2485 38.0865 59.9548C35.4827 57.661 34.1809 54.6233 34.1809 50.8417ZM65.3094 62.698V38.2415H69.2383L69.401 41.9146C70.2844 40.7523 71.4623 39.7371 72.9346 38.8692C74.407 37.9858 76.1196 37.5441 78.0724 37.5441C78.5993 37.5441 79.0875 37.5751 79.537 37.6371C80.0019 37.6836 80.3739 37.7456 80.6529 37.8231V42.1936C80.0949 42.1006 79.599 42.0309 79.165 41.9844C78.7465 41.9379 78.2893 41.9146 77.7934 41.9146C75.8716 41.9146 74.1823 42.3563 72.7254 43.2397C71.2841 44.1077 70.2069 45.1848 69.494 46.4712V62.698H65.3094ZM82.6056 50.8417V50.0978C82.6056 46.4092 83.892 43.3947 86.4648 41.0545C89.053 38.7142 92.3541 37.5441 96.3682 37.5441C100.382 37.5441 103.552 38.6135 105.877 40.7523C108.201 42.891 109.348 45.8667 109.317 49.6793V51.5159H84.8607V48.1915H105.226V48.5635C105.226 46.0992 104.551 44.2394 103.203 42.984C101.855 41.7132 99.5144 41.0777 96.1823 41.0777C93.1911 41.0777 90.8353 41.9379 89.115 43.6582C87.3947 45.3785 86.5345 47.5251 86.5345 50.0978V50.8417C86.5345 53.399 87.4644 55.53 89.3242 57.2348C91.1995 58.9396 93.8652 59.792 97.3214 59.792C99.2587 59.792 100.987 59.4743 102.506 58.8389C104.024 58.188 105.249 57.3975 106.179 56.4676L108.992 58.8854C108.015 60.2028 106.496 61.2876 104.435 62.1401C102.374 62.9925 99.9716 63.4187 97.2284 63.4187C92.6564 63.4187 89.0762 62.2485 86.488 59.9083C83.8998 57.5525 82.6056 54.5303 82.6056 50.8417ZM112.572 55.7005C112.572 53.1742 113.835 51.2214 116.361 49.8421C118.903 48.4472 122.01 47.7498 125.683 47.7498H133.588V45.9597C133.588 44.4874 133.014 43.3017 131.867 42.4028C130.736 41.4884 128.822 41.0312 126.125 41.0312C123.521 41.0312 121.592 41.4032 120.337 42.1471C119.081 42.891 118.453 43.8287 118.453 44.9601V45.3785H114.292V44.9601C114.292 42.8368 115.431 41.07 117.71 39.6596C119.988 38.2493 122.886 37.5441 126.404 37.5441C129.922 37.5441 132.696 38.2493 134.727 39.6596C136.757 41.07 137.772 43.17 137.772 45.9597V57.1186C137.772 58.126 137.896 59.0869 138.144 60.0013C138.392 60.9157 138.725 61.6906 139.144 62.326V62.698H135.122C134.859 62.326 134.618 61.8068 134.401 61.1404C134.184 60.474 134.045 59.8385 133.983 59.2341C133.285 60.2415 131.945 61.1482 129.961 61.9541C127.993 62.76 125.676 63.163 123.01 63.163C120.22 63.163 117.779 62.543 115.687 61.3031C113.61 60.0633 112.572 58.1957 112.572 55.7005ZM116.78 55.561C116.78 56.9248 117.392 57.9555 118.616 58.6529C119.841 59.3503 121.685 59.6991 124.149 59.6991C126.52 59.6991 128.682 59.1644 130.635 58.095C132.604 57.0256 133.588 55.7935 133.588 54.3986V50.958H126.265C123.304 50.958 120.98 51.3687 119.29 52.1901C117.617 52.996 116.78 54.1196 116.78 55.561ZM141.12 41.8681V38.2415H158.742V41.8681H141.12ZM147.025 55.8167V40.3106V39.7759V32.1971H151.209V55.8167C151.209 57.1961 151.543 58.1802 152.209 58.7692C152.891 59.3581 153.836 59.6526 155.045 59.6526C155.557 59.6526 156.053 59.6061 156.533 59.5131C157.013 59.4201 157.494 59.3038 157.974 59.1644V62.7677C157.556 62.9382 156.975 63.0855 156.231 63.2094C155.502 63.3334 154.727 63.3954 153.906 63.3954C151.86 63.3954 150.202 62.791 148.931 61.5821C147.66 60.3577 147.025 58.4359 147.025 55.8167ZM161.02 50.8417V50.0978C161.02 46.4092 162.353 43.3947 165.018 41.0545C167.7 38.7142 171.171 37.5441 175.433 37.5441C179.695 37.5441 183.159 38.7142 185.825 41.0545C188.506 43.3947 189.847 46.4092 189.847 50.0978V50.8417C189.847 54.5303 188.506 57.5448 185.825 59.885C183.159 62.2253 179.695 63.3954 175.433 63.3954C171.171 63.3954 167.7 62.2253 165.018 59.885C162.353 57.5448 161.02 54.5303 161.02 50.8417ZM165.297 50.0978V50.8417C165.297 53.4454 166.181 55.561 167.948 57.1883C169.714 58.8001 172.21 59.6061 175.433 59.6061C178.642 59.6061 181.129 58.8001 182.896 57.1883C184.678 55.561 185.569 53.4454 185.569 50.8417V50.0978C185.569 47.4941 184.678 45.3863 182.896 43.7744C181.129 42.1471 178.642 41.3334 175.433 41.3334C172.21 41.3334 169.714 42.1471 167.948 43.7744C166.181 45.3863 165.297 47.4941 165.297 50.0978ZM194.845 62.698V38.2415H198.774L198.937 41.9146C199.82 40.7523 200.998 39.7371 202.47 38.8692C203.943 37.9858 205.655 37.5441 207.608 37.5441C208.135 37.5441 208.623 37.5751 209.073 37.6371C209.538 37.6836 209.91 37.7456 210.189 37.8231V42.1936C209.631 42.1006 209.135 42.0309 208.701 41.9844C208.282 41.9379 207.825 41.9146 207.329 41.9146C205.407 41.9146 203.718 42.3563 202.261 43.2397C200.82 44.1077 199.743 45.1848 199.03 46.4712V62.698H194.845ZM212.351 55.0728H216.512V55.5145C216.512 57.0333 217.256 58.1415 218.744 58.8389C220.231 59.5208 222.231 59.8618 224.742 59.8618C227.252 59.8618 229.182 59.5131 230.53 58.8156C231.879 58.1027 232.553 57.1573 232.553 55.9794C232.553 54.8016 231.948 53.9646 230.739 53.4687C229.531 52.9727 227.19 52.4458 223.719 51.8879C220.247 51.3299 217.698 50.4465 216.07 49.2376C214.458 48.0288 213.652 46.5022 213.652 44.6579C213.652 42.5811 214.668 40.8762 216.698 39.5434C218.744 38.2105 221.502 37.5441 224.974 37.5441C228.477 37.5441 231.274 38.3035 233.366 39.8224C235.459 41.3257 236.505 43.1313 236.505 45.239V45.6343H232.343V45.3553C232.343 44.0534 231.716 43.015 230.46 42.2401C229.221 41.4652 227.392 41.0777 224.974 41.0777C222.572 41.0777 220.782 41.3644 219.604 41.9379C218.441 42.5113 217.86 43.3017 217.86 44.3091C217.86 45.3165 218.41 46.107 219.511 46.6804C220.611 47.2538 222.905 47.8195 226.392 48.3775C229.848 48.9354 232.444 49.7878 234.18 50.9347C235.931 52.0816 236.807 53.6624 236.807 55.6772C236.807 57.8935 235.776 59.7378 233.715 61.2102C231.654 62.667 228.663 63.3954 224.742 63.3954C220.805 63.3954 217.752 62.667 215.582 61.2102C213.428 59.7378 212.351 57.785 212.351 55.3518V55.0728Z" fill="white"/>
</svg>
