<svg width="1233" height="585" viewBox="0 0 1233 585" fill="none" xmlns="http://www.w3.org/2000/svg">
<path d="M12.51 437H10.72V425.69L3.19 437H1.4V422.6H3.19V433.91L10.72 422.6H12.51V437ZM19.4563 437.3C18.6563 437.3 17.9363 437.163 17.2963 436.89C16.6629 436.61 16.1229 436.22 15.6763 435.72C15.2363 435.22 14.8963 434.62 14.6563 433.92C14.4229 433.22 14.3063 432.447 14.3063 431.6C14.3063 430.74 14.4263 429.96 14.6663 429.26C14.9063 428.56 15.2463 427.963 15.6863 427.47C16.1329 426.97 16.6763 426.583 17.3163 426.31C17.9563 426.037 18.6763 425.9 19.4763 425.9C20.0496 425.9 20.5829 425.973 21.0763 426.12C21.5763 426.267 22.0229 426.477 22.4163 426.75C22.8163 427.017 23.1563 427.343 23.4363 427.73C23.7229 428.117 23.9363 428.553 24.0763 429.04L22.3163 429.57C22.0829 428.943 21.7129 428.457 21.2063 428.11C20.7063 427.763 20.1229 427.59 19.4563 427.59C18.9229 427.59 18.4529 427.687 18.0463 427.88C17.6396 428.067 17.2996 428.333 17.0263 428.68C16.7529 429.027 16.5463 429.447 16.4063 429.94C16.2663 430.433 16.1963 430.987 16.1963 431.6C16.1963 432.2 16.2629 432.747 16.3963 433.24C16.5363 433.733 16.7429 434.157 17.0163 434.51C17.2896 434.857 17.6296 435.127 18.0363 435.32C18.4429 435.513 18.9163 435.61 19.4563 435.61C20.1696 435.61 20.7563 435.447 21.2163 435.12C21.6829 434.793 22.0363 434.327 22.2763 433.72L24.0763 434.19C23.6963 435.203 23.1096 435.977 22.3163 436.51C21.5296 437.037 20.5763 437.3 19.4563 437.3ZM25.7072 437V426.2H34.4572V437H32.6772V427.88H27.4872V437H25.7072ZM41.4602 437.3C40.6602 437.3 39.9368 437.16 39.2902 436.88C38.6502 436.6 38.1035 436.21 37.6502 435.71C37.2035 435.203 36.8602 434.6 36.6202 433.9C36.3802 433.2 36.2602 432.43 36.2602 431.59C36.2602 430.743 36.3802 429.973 36.6202 429.28C36.8668 428.58 37.2135 427.98 37.6602 427.48C38.1135 426.98 38.6602 426.593 39.3002 426.32C39.9468 426.04 40.6668 425.9 41.4602 425.9C42.2668 425.9 42.9902 426.04 43.6302 426.32C44.2768 426.593 44.8235 426.983 45.2702 427.49C45.7235 427.99 46.0702 428.59 46.3102 429.29C46.5502 429.983 46.6702 430.75 46.6702 431.59C46.6702 432.437 46.5468 433.21 46.3002 433.91C46.0602 434.61 45.7135 435.213 45.2602 435.72C44.8135 436.22 44.2668 436.61 43.6202 436.89C42.9802 437.163 42.2602 437.3 41.4602 437.3ZM41.4602 435.61C42.0068 435.61 42.4868 435.517 42.9002 435.33C43.3135 435.137 43.6602 434.867 43.9402 434.52C44.2202 434.167 44.4302 433.743 44.5702 433.25C44.7102 432.75 44.7802 432.197 44.7802 431.59C44.7802 430.97 44.7102 430.413 44.5702 429.92C44.4302 429.427 44.2202 429.007 43.9402 428.66C43.6602 428.313 43.3135 428.05 42.9002 427.87C42.4868 427.683 42.0068 427.59 41.4602 427.59C40.9135 427.59 40.4302 427.683 40.0102 427.87C39.5968 428.057 39.2535 428.327 38.9802 428.68C38.7068 429.027 38.5002 429.447 38.3602 429.94C38.2202 430.427 38.1502 430.977 38.1502 431.59C38.1502 432.21 38.2202 432.767 38.3602 433.26C38.5068 433.753 38.7202 434.177 39.0002 434.53C39.2802 434.877 39.6235 435.143 40.0302 435.33C40.4435 435.517 40.9202 435.61 41.4602 435.61ZM47.4719 435.59C47.6452 435.643 47.7952 435.67 47.9219 435.67C48.2019 435.67 48.4319 435.57 48.6119 435.37C48.7985 435.17 48.9452 434.88 49.0519 434.5C49.1652 434.12 49.2452 433.657 49.2919 433.11C49.3385 432.557 49.3619 431.93 49.3619 431.23V426.2H57.3119V437H55.5319V427.88H51.0319V431.73C51.0319 433.643 50.8152 435.05 50.3819 435.95C49.9485 436.85 49.3052 437.3 48.4519 437.3C48.1385 437.3 47.8119 437.247 47.4719 437.14V435.59ZM64.5525 437H59.7125V426.2H61.4925V430.17H64.5525C65.1925 430.17 65.7492 430.257 66.2225 430.43C66.7025 430.603 67.0992 430.843 67.4125 431.15C67.7325 431.45 67.9692 431.81 68.1225 432.23C68.2825 432.643 68.3625 433.093 68.3625 433.58C68.3625 434.067 68.2825 434.52 68.1225 434.94C67.9692 435.353 67.7325 435.713 67.4125 436.02C67.0992 436.327 66.7025 436.567 66.2225 436.74C65.7492 436.913 65.1925 437 64.5525 437ZM64.3225 435.49C64.7092 435.49 65.0425 435.443 65.3225 435.35C65.6092 435.25 65.8458 435.117 66.0325 434.95C66.2192 434.777 66.3558 434.573 66.4425 434.34C66.5358 434.107 66.5825 433.853 66.5825 433.58C66.5825 433.307 66.5358 433.053 66.4425 432.82C66.3558 432.587 66.2192 432.387 66.0325 432.22C65.8458 432.047 65.6092 431.913 65.3225 431.82C65.0425 431.72 64.7092 431.67 64.3225 431.67H61.4925V435.49H64.3225ZM73.9419 437.3C73.3152 437.3 72.7385 437.23 72.2119 437.09C71.6852 436.95 71.2219 436.737 70.8219 436.45C70.4219 436.157 70.0885 435.787 69.8219 435.34C69.5619 434.893 69.3785 434.367 69.2719 433.76L70.9719 433.45C71.0852 434.21 71.3885 434.777 71.8819 435.15C72.3819 435.523 73.0519 435.71 73.8919 435.71C74.7652 435.71 75.4285 435.547 75.8819 435.22C76.3419 434.893 76.5719 434.447 76.5719 433.88C76.5719 433.573 76.5152 433.313 76.4019 433.1C76.2952 432.887 76.1452 432.713 75.9519 432.58C75.7585 432.44 75.5285 432.34 75.2619 432.28C74.9952 432.22 74.7052 432.19 74.3919 432.19H72.7319V430.72H74.3919C74.9985 430.72 75.4652 430.597 75.7919 430.35C76.1252 430.103 76.2919 429.747 76.2919 429.28C76.2919 428.707 76.0885 428.267 75.6819 427.96C75.2752 427.647 74.6785 427.49 73.8919 427.49C73.4852 427.49 73.1252 427.533 72.8119 427.62C72.5052 427.707 72.2419 427.833 72.0219 428C71.8019 428.16 71.6185 428.36 71.4719 428.6C71.3319 428.84 71.2252 429.11 71.1519 429.41L69.4519 429.1C69.5985 428.5 69.8152 427.997 70.1019 427.59C70.3952 427.177 70.7385 426.847 71.1319 426.6C71.5319 426.347 71.9685 426.167 72.4419 426.06C72.9152 425.953 73.4119 425.9 73.9319 425.9C74.5852 425.9 75.1652 425.977 75.6719 426.13C76.1852 426.277 76.6185 426.493 76.9719 426.78C77.3252 427.06 77.5919 427.403 77.7719 427.81C77.9585 428.21 78.0519 428.667 78.0519 429.18C78.0519 429.733 77.9319 430.193 77.6919 430.56C77.4519 430.927 77.1019 431.21 76.6419 431.41C76.8819 431.483 77.1052 431.597 77.3119 431.75C77.5185 431.903 77.6985 432.087 77.8519 432.3C78.0052 432.513 78.1252 432.757 78.2119 433.03C78.2985 433.297 78.3419 433.587 78.3419 433.9C78.3419 434.4 78.2419 434.86 78.0419 435.28C77.8485 435.693 77.5619 436.05 77.1819 436.35C76.8085 436.65 76.3485 436.883 75.8019 437.05C75.2552 437.217 74.6352 437.3 73.9419 437.3ZM81.643 441.8L83.423 436.96L79.043 426.2H80.913L84.283 434.7L87.443 426.2H89.253L83.373 441.8H81.643ZM95.1447 435.63C95.8914 435.63 96.5114 435.467 97.0047 435.14C97.498 434.813 97.8947 434.343 98.1947 433.73L99.9147 434.3C99.488 435.267 98.8614 436.01 98.0347 436.53C97.2147 437.043 96.2514 437.3 95.1447 437.3C94.358 437.3 93.6414 437.163 92.9947 436.89C92.348 436.617 91.7947 436.233 91.3347 435.74C90.8814 435.24 90.528 434.64 90.2747 433.94C90.028 433.24 89.9047 432.46 89.9047 431.6C89.9047 430.733 90.028 429.95 90.2747 429.25C90.5214 428.543 90.8714 427.943 91.3247 427.45C91.7847 426.957 92.3347 426.577 92.9747 426.31C93.6147 426.037 94.3247 425.9 95.1047 425.9C95.9314 425.9 96.6647 426.043 97.3047 426.33C97.9447 426.617 98.478 427.027 98.9047 427.56C99.3314 428.093 99.6447 428.743 99.8447 429.51C100.051 430.277 100.135 431.14 100.095 432.1H91.8147C91.8547 432.66 91.958 433.16 92.1247 433.6C92.298 434.033 92.528 434.4 92.8147 434.7C93.1014 435 93.438 435.23 93.8247 435.39C94.218 435.55 94.658 435.63 95.1447 435.63ZM98.2447 430.67C98.1647 429.657 97.8547 428.88 97.3147 428.34C96.7747 427.793 96.038 427.52 95.1047 427.52C94.1847 427.52 93.4447 427.793 92.8847 428.34C92.3314 428.887 91.988 429.663 91.8547 430.67H98.2447ZM101.618 437V426.2H103.398L107.048 433.36L110.698 426.2H112.478V437H110.698V429.67L107.798 435.39H106.298L103.398 429.67V437H101.618ZM117.684 435.32H118.734C118.908 435.12 119.044 434.847 119.144 434.5C119.251 434.147 119.334 433.743 119.394 433.29C119.454 432.837 119.494 432.347 119.514 431.82C119.534 431.287 119.544 430.74 119.544 430.18V426.2H127.594V435.32H128.994V439.3H127.214V437H119.464V439.3H117.684V435.32ZM125.814 435.32V427.88H121.214V431.12C121.214 431.573 121.201 432.01 121.174 432.43C121.148 432.843 121.108 433.233 121.054 433.6C121.001 433.96 120.938 434.287 120.864 434.58C120.798 434.873 120.718 435.12 120.624 435.32H125.814ZM139.444 426.2V437H137.664V428.99L132.374 437H130.594V426.2H132.374V434.21L137.664 426.2H139.444ZM145.615 437.3C144.988 437.3 144.411 437.23 143.885 437.09C143.358 436.95 142.895 436.737 142.495 436.45C142.095 436.157 141.761 435.787 141.495 435.34C141.235 434.893 141.051 434.367 140.945 433.76L142.645 433.45C142.758 434.21 143.061 434.777 143.555 435.15C144.055 435.523 144.725 435.71 145.565 435.71C146.438 435.71 147.101 435.547 147.555 435.22C148.015 434.893 148.245 434.447 148.245 433.88C148.245 433.573 148.188 433.313 148.075 433.1C147.968 432.887 147.818 432.713 147.625 432.58C147.431 432.44 147.201 432.34 146.935 432.28C146.668 432.22 146.378 432.19 146.065 432.19H144.405V430.72H146.065C146.671 430.72 147.138 430.597 147.465 430.35C147.798 430.103 147.965 429.747 147.965 429.28C147.965 428.707 147.761 428.267 147.355 427.96C146.948 427.647 146.351 427.49 145.565 427.49C145.158 427.49 144.798 427.533 144.485 427.62C144.178 427.707 143.915 427.833 143.695 428C143.475 428.16 143.291 428.36 143.145 428.6C143.005 428.84 142.898 429.11 142.825 429.41L141.125 429.1C141.271 428.5 141.488 427.997 141.775 427.59C142.068 427.177 142.411 426.847 142.805 426.6C143.205 426.347 143.641 426.167 144.115 426.06C144.588 425.953 145.085 425.9 145.605 425.9C146.258 425.9 146.838 425.977 147.345 426.13C147.858 426.277 148.291 426.493 148.645 426.78C148.998 427.06 149.265 427.403 149.445 427.81C149.631 428.21 149.725 428.667 149.725 429.18C149.725 429.733 149.605 430.193 149.365 430.56C149.125 430.927 148.775 431.21 148.315 431.41C148.555 431.483 148.778 431.597 148.985 431.75C149.191 431.903 149.371 432.087 149.525 432.3C149.678 432.513 149.798 432.757 149.885 433.03C149.971 433.297 150.015 433.587 150.015 433.9C150.015 434.4 149.915 434.86 149.715 435.28C149.521 435.693 149.235 436.05 148.855 436.35C148.481 436.65 148.021 436.883 147.475 437.05C146.928 437.217 146.308 437.3 145.615 437.3ZM156.076 425.9C157.549 425.9 158.649 426.28 159.376 427.04C160.102 427.793 160.466 428.937 160.466 430.47V437H158.686V435.3C158.306 435.96 157.799 436.46 157.166 436.8C156.539 437.133 155.789 437.3 154.916 437.3C154.349 437.3 153.836 437.227 153.376 437.08C152.922 436.933 152.536 436.723 152.216 436.45C151.896 436.17 151.649 435.837 151.476 435.45C151.302 435.057 151.216 434.617 151.216 434.13C151.216 433.577 151.316 433.097 151.516 432.69C151.722 432.283 152.012 431.94 152.386 431.66C152.766 431.38 153.222 431.157 153.756 430.99C154.296 430.823 154.902 430.697 155.576 430.61L158.686 430.23C158.679 429.283 158.462 428.593 158.036 428.16C157.609 427.727 156.949 427.51 156.056 427.51C155.289 427.51 154.679 427.66 154.226 427.96C153.772 428.26 153.456 428.727 153.276 429.36L151.616 428.94C151.882 427.947 152.396 427.193 153.156 426.68C153.922 426.16 154.896 425.9 156.076 425.9ZM155.776 431.98C154.789 432.107 154.076 432.33 153.636 432.65C153.196 432.963 152.976 433.417 152.976 434.01C152.976 434.59 153.169 435.027 153.556 435.32C153.942 435.613 154.519 435.76 155.286 435.76C155.706 435.76 156.092 435.703 156.446 435.59C156.806 435.47 157.122 435.303 157.396 435.09C157.676 434.877 157.909 434.62 158.096 434.32C158.289 434.02 158.429 433.687 158.516 433.32C158.602 433.047 158.652 432.76 158.666 432.46C158.679 432.16 158.686 431.89 158.686 431.65V431.62L155.776 431.98ZM167.316 424.94C166.822 424.94 166.366 424.82 165.946 424.58C165.526 424.333 165.192 424 164.946 423.58C164.706 423.16 164.586 422.703 164.586 422.21H166.026C166.026 422.443 166.082 422.66 166.196 422.86C166.316 423.053 166.472 423.21 166.666 423.33C166.866 423.443 167.082 423.5 167.316 423.5C167.556 423.5 167.772 423.443 167.966 423.33C168.166 423.21 168.322 423.053 168.436 422.86C168.549 422.66 168.606 422.443 168.606 422.21H170.046C170.046 422.703 169.922 423.16 169.676 423.58C169.436 424 169.106 424.333 168.686 424.58C168.272 424.82 167.816 424.94 167.316 424.94ZM171.506 426.2V437H169.726V428.99L164.436 437H162.656V426.2H164.436V434.21L169.726 426.2H171.506ZM173.896 437V426.2H175.676V430.76H181.356V426.2H183.136V437H181.356V432.44H175.676V437H173.896ZM197.981 426.2V437H196.201V428.99L190.911 437H189.131V426.2H190.911V434.21L196.201 426.2H197.981ZM206.796 437V427.88H203.086V426.2H212.286V427.88H208.576V437H206.796ZM218.421 435.63C219.168 435.63 219.788 435.467 220.281 435.14C220.775 434.813 221.171 434.343 221.471 433.73L223.191 434.3C222.765 435.267 222.138 436.01 221.311 436.53C220.491 437.043 219.528 437.3 218.421 437.3C217.635 437.3 216.918 437.163 216.271 436.89C215.625 436.617 215.071 436.233 214.611 435.74C214.158 435.24 213.805 434.64 213.551 433.94C213.305 433.24 213.181 432.46 213.181 431.6C213.181 430.733 213.305 429.95 213.551 429.25C213.798 428.543 214.148 427.943 214.601 427.45C215.061 426.957 215.611 426.577 216.251 426.31C216.891 426.037 217.601 425.9 218.381 425.9C219.208 425.9 219.941 426.043 220.581 426.33C221.221 426.617 221.755 427.027 222.181 427.56C222.608 428.093 222.921 428.743 223.121 429.51C223.328 430.277 223.411 431.14 223.371 432.1H215.091C215.131 432.66 215.235 433.16 215.401 433.6C215.575 434.033 215.805 434.4 216.091 434.7C216.378 435 216.715 435.23 217.101 435.39C217.495 435.55 217.935 435.63 218.421 435.63ZM221.521 430.67C221.441 429.657 221.131 428.88 220.591 428.34C220.051 427.793 219.315 427.52 218.381 427.52C217.461 427.52 216.721 427.793 216.161 428.34C215.608 428.887 215.265 429.663 215.131 430.67H221.521ZM223.607 437L227.737 431.54L223.697 426.2H225.817L228.777 430.16L231.707 426.2H233.827L229.787 431.54L233.927 437H231.797L228.777 432.92L225.737 437H223.607ZM235.12 437V426.2H236.9V430.76H242.58V426.2H244.36V437H242.58V432.44H236.9V437H235.12ZM251.361 437.3C250.561 437.3 249.838 437.16 249.191 436.88C248.551 436.6 248.004 436.21 247.551 435.71C247.104 435.203 246.761 434.6 246.521 433.9C246.281 433.2 246.161 432.43 246.161 431.59C246.161 430.743 246.281 429.973 246.521 429.28C246.768 428.58 247.114 427.98 247.561 427.48C248.014 426.98 248.561 426.593 249.201 426.32C249.848 426.04 250.568 425.9 251.361 425.9C252.168 425.9 252.891 426.04 253.531 426.32C254.178 426.593 254.724 426.983 255.171 427.49C255.624 427.99 255.971 428.59 256.211 429.29C256.451 429.983 256.571 430.75 256.571 431.59C256.571 432.437 256.448 433.21 256.201 433.91C255.961 434.61 255.614 435.213 255.161 435.72C254.714 436.22 254.168 436.61 253.521 436.89C252.881 437.163 252.161 437.3 251.361 437.3ZM251.361 435.61C251.908 435.61 252.388 435.517 252.801 435.33C253.214 435.137 253.561 434.867 253.841 434.52C254.121 434.167 254.331 433.743 254.471 433.25C254.611 432.75 254.681 432.197 254.681 431.59C254.681 430.97 254.611 430.413 254.471 429.92C254.331 429.427 254.121 429.007 253.841 428.66C253.561 428.313 253.214 428.05 252.801 427.87C252.388 427.683 251.908 427.59 251.361 427.59C250.814 427.59 250.331 427.683 249.911 427.87C249.498 428.057 249.154 428.327 248.881 428.68C248.608 429.027 248.401 429.447 248.261 429.94C248.121 430.427 248.051 430.977 248.051 431.59C248.051 432.21 248.121 432.767 248.261 433.26C248.408 433.753 248.621 434.177 248.901 434.53C249.181 434.877 249.524 435.143 249.931 435.33C250.344 435.517 250.821 435.61 251.361 435.61ZM257.373 435.59C257.546 435.643 257.696 435.67 257.823 435.67C258.103 435.67 258.333 435.57 258.513 435.37C258.699 435.17 258.846 434.88 258.953 434.5C259.066 434.12 259.146 433.657 259.193 433.11C259.239 432.557 259.263 431.93 259.263 431.23V426.2H267.213V437H265.433V427.88H260.933V431.73C260.933 433.643 260.716 435.05 260.283 435.95C259.849 436.85 259.206 437.3 258.353 437.3C258.039 437.3 257.713 437.247 257.373 437.14V435.59ZM274.213 437.3C273.413 437.3 272.69 437.16 272.043 436.88C271.403 436.6 270.857 436.21 270.403 435.71C269.957 435.203 269.613 434.6 269.373 433.9C269.133 433.2 269.013 432.43 269.013 431.59C269.013 430.743 269.133 429.973 269.373 429.28C269.62 428.58 269.967 427.98 270.413 427.48C270.867 426.98 271.413 426.593 272.053 426.32C272.7 426.04 273.42 425.9 274.213 425.9C275.02 425.9 275.743 426.04 276.383 426.32C277.03 426.593 277.577 426.983 278.023 427.49C278.477 427.99 278.823 428.59 279.063 429.29C279.303 429.983 279.423 430.75 279.423 431.59C279.423 432.437 279.3 433.21 279.053 433.91C278.813 434.61 278.467 435.213 278.013 435.72C277.567 436.22 277.02 436.61 276.373 436.89C275.733 437.163 275.013 437.3 274.213 437.3ZM274.213 435.61C274.76 435.61 275.24 435.517 275.653 435.33C276.067 435.137 276.413 434.867 276.693 434.52C276.973 434.167 277.183 433.743 277.323 433.25C277.463 432.75 277.533 432.197 277.533 431.59C277.533 430.97 277.463 430.413 277.323 429.92C277.183 429.427 276.973 429.007 276.693 428.66C276.413 428.313 276.067 428.05 275.653 427.87C275.24 427.683 274.76 427.59 274.213 427.59C273.667 427.59 273.183 427.683 272.763 427.87C272.35 428.057 272.007 428.327 271.733 428.68C271.46 429.027 271.253 429.447 271.113 429.94C270.973 430.427 270.903 430.977 270.903 431.59C270.903 432.21 270.973 432.767 271.113 433.26C271.26 433.753 271.473 434.177 271.753 434.53C272.033 434.877 272.377 435.143 272.783 435.33C273.197 435.517 273.673 435.61 274.213 435.61ZM281.225 437V426.2H288.275V427.88H283.015V437H281.225ZM298.61 426.2V437H296.83V428.99L291.54 437H289.76V426.2H291.54V434.21L296.83 426.2H298.61ZM309.851 426.2V437H308.071V428.99L302.781 437H301.001V426.2H302.781V434.21L308.071 426.2H309.851ZM315.845 426.2H317.625V431.4L322.155 426.2H324.465L319.695 431.6L325.025 437H322.535L317.625 431.8V437H315.845V426.2ZM329.891 425.9C331.365 425.9 332.465 426.28 333.191 427.04C333.918 427.793 334.281 428.937 334.281 430.47V437H332.501V435.3C332.121 435.96 331.615 436.46 330.981 436.8C330.355 437.133 329.605 437.3 328.731 437.3C328.165 437.3 327.651 437.227 327.191 437.08C326.738 436.933 326.351 436.723 326.031 436.45C325.711 436.17 325.465 435.837 325.291 435.45C325.118 435.057 325.031 434.617 325.031 434.13C325.031 433.577 325.131 433.097 325.331 432.69C325.538 432.283 325.828 431.94 326.201 431.66C326.581 431.38 327.038 431.157 327.571 430.99C328.111 430.823 328.718 430.697 329.391 430.61L332.501 430.23C332.495 429.283 332.278 428.593 331.851 428.16C331.425 427.727 330.765 427.51 329.871 427.51C329.105 427.51 328.495 427.66 328.041 427.96C327.588 428.26 327.271 428.727 327.091 429.36L325.431 428.94C325.698 427.947 326.211 427.193 326.971 426.68C327.738 426.16 328.711 425.9 329.891 425.9ZM329.591 431.98C328.605 432.107 327.891 432.33 327.451 432.65C327.011 432.963 326.791 433.417 326.791 434.01C326.791 434.59 326.985 435.027 327.371 435.32C327.758 435.613 328.335 435.76 329.101 435.76C329.521 435.76 329.908 435.703 330.261 435.59C330.621 435.47 330.938 435.303 331.211 435.09C331.491 434.877 331.725 434.62 331.911 434.32C332.105 434.02 332.245 433.687 332.331 433.32C332.418 433.047 332.468 432.76 332.481 432.46C332.495 432.16 332.501 431.89 332.501 431.65V431.62L329.591 431.98ZM336.471 426.2H338.251V431.4L342.781 426.2H345.091L340.321 431.6L345.651 437H343.161L338.251 431.8V437H336.471V426.2ZM349.851 426.2H351.631V431.4L356.161 426.2H358.471L353.701 431.6L359.031 437H356.541L351.631 431.8V437H349.851V426.2ZM358.441 435.59C358.615 435.643 358.765 435.67 358.891 435.67C359.171 435.67 359.401 435.57 359.581 435.37C359.768 435.17 359.915 434.88 360.021 434.5C360.135 434.12 360.215 433.657 360.261 433.11C360.308 432.557 360.331 431.93 360.331 431.23V426.2H368.281V437H366.501V427.88H362.001V431.73C362.001 433.643 361.785 435.05 361.351 435.95C360.918 436.85 360.275 437.3 359.421 437.3C359.108 437.3 358.781 437.247 358.441 437.14V435.59ZM379.692 437.3C378.959 437.3 378.292 437.183 377.692 436.95C377.092 436.717 376.572 436.39 376.132 435.97C375.692 435.543 375.335 435.037 375.062 434.45C374.789 433.857 374.612 433.203 374.532 432.49H372.452V437H370.672V426.2H372.452V430.71H374.532C374.612 429.983 374.789 429.327 375.062 428.74C375.342 428.147 375.705 427.64 376.152 427.22C376.599 426.8 377.119 426.477 377.712 426.25C378.312 426.017 378.972 425.9 379.692 425.9C380.505 425.9 381.232 426.04 381.872 426.32C382.519 426.6 383.065 426.993 383.512 427.5C383.959 428 384.302 428.6 384.542 429.3C384.782 429.993 384.902 430.757 384.902 431.59C384.902 432.437 384.779 433.21 384.532 433.91C384.292 434.61 383.945 435.213 383.492 435.72C383.045 436.22 382.499 436.61 381.852 436.89C381.212 437.163 380.492 437.3 379.692 437.3ZM379.692 435.61C380.252 435.61 380.739 435.513 381.152 435.32C381.565 435.12 381.909 434.843 382.182 434.49C382.462 434.137 382.669 433.713 382.802 433.22C382.942 432.727 383.012 432.183 383.012 431.59C383.012 430.983 382.942 430.433 382.802 429.94C382.662 429.447 382.452 429.027 382.172 428.68C381.899 428.333 381.555 428.067 381.142 427.88C380.729 427.687 380.245 427.59 379.692 427.59C379.125 427.59 378.635 427.69 378.222 427.89C377.809 428.083 377.465 428.357 377.192 428.71C376.919 429.057 376.715 429.477 376.582 429.97C376.449 430.457 376.382 430.997 376.382 431.59C376.382 432.197 376.452 432.75 376.592 433.25C376.732 433.743 376.939 434.167 377.212 434.52C377.492 434.867 377.839 435.137 378.252 435.33C378.665 435.517 379.145 435.61 379.692 435.61ZM392.688 437V432.8C392.328 433.013 391.911 433.177 391.438 433.29C390.964 433.403 390.434 433.46 389.848 433.46C388.561 433.46 387.614 433.123 387.008 432.45C386.408 431.777 386.108 430.73 386.108 429.31V426.2H387.888V429.06C387.888 429.547 387.924 429.967 387.998 430.32C388.071 430.673 388.194 430.967 388.368 431.2C388.548 431.433 388.784 431.607 389.078 431.72C389.378 431.833 389.748 431.89 390.188 431.89C390.694 431.89 391.148 431.83 391.548 431.71C391.954 431.583 392.334 431.4 392.688 431.16V426.2H394.468V437H392.688ZM401.514 435.63C402.261 435.63 402.881 435.467 403.374 435.14C403.868 434.813 404.264 434.343 404.564 433.73L406.284 434.3C405.858 435.267 405.231 436.01 404.404 436.53C403.584 437.043 402.621 437.3 401.514 437.3C400.728 437.3 400.011 437.163 399.364 436.89C398.718 436.617 398.164 436.233 397.704 435.74C397.251 435.24 396.898 434.64 396.644 433.94C396.398 433.24 396.274 432.46 396.274 431.6C396.274 430.733 396.398 429.95 396.644 429.25C396.891 428.543 397.241 427.943 397.694 427.45C398.154 426.957 398.704 426.577 399.344 426.31C399.984 426.037 400.694 425.9 401.474 425.9C402.301 425.9 403.034 426.043 403.674 426.33C404.314 426.617 404.848 427.027 405.274 427.56C405.701 428.093 406.014 428.743 406.214 429.51C406.421 430.277 406.504 431.14 406.464 432.1H398.184C398.224 432.66 398.328 433.16 398.494 433.6C398.668 434.033 398.898 434.4 399.184 434.7C399.471 435 399.808 435.23 400.194 435.39C400.588 435.55 401.028 435.63 401.514 435.63ZM404.614 430.67C404.534 429.657 404.224 428.88 403.684 428.34C403.144 427.793 402.408 427.52 401.474 427.52C400.554 427.52 399.814 427.793 399.254 428.34C398.701 428.887 398.358 429.663 398.224 430.67H404.614ZM412.791 437H408.281V426.2H412.601C413.867 426.2 414.831 426.447 415.491 426.94C416.151 427.427 416.481 428.147 416.481 429.1C416.481 429.707 416.344 430.2 416.071 430.58C415.797 430.96 415.437 431.237 414.991 431.41C415.244 431.483 415.481 431.597 415.701 431.75C415.921 431.903 416.111 432.093 416.271 432.32C416.437 432.54 416.567 432.793 416.661 433.08C416.754 433.367 416.801 433.677 416.801 434.01C416.801 434.99 416.461 435.733 415.781 436.24C415.101 436.747 414.104 437 412.791 437ZM412.601 427.67H409.951V430.76H412.901C413.174 430.76 413.424 430.733 413.651 430.68C413.884 430.62 414.081 430.53 414.241 430.41C414.407 430.283 414.534 430.127 414.621 429.94C414.714 429.753 414.761 429.53 414.761 429.27C414.761 428.697 414.587 428.287 414.241 428.04C413.901 427.793 413.354 427.67 412.601 427.67ZM412.761 435.53C413.527 435.53 414.104 435.4 414.491 435.14C414.884 434.88 415.081 434.463 415.081 433.89C415.081 433.59 415.027 433.333 414.921 433.12C414.821 432.907 414.681 432.733 414.501 432.6C414.321 432.46 414.107 432.36 413.861 432.3C413.621 432.24 413.361 432.21 413.081 432.21H409.961V435.53H412.761ZM428.288 437V426.2H430.068V437H428.288ZM423.238 437H418.398V426.2H420.178V430.17H423.238C423.878 430.17 424.435 430.257 424.908 430.43C425.388 430.603 425.785 430.843 426.098 431.15C426.418 431.45 426.658 431.81 426.818 432.23C426.978 432.643 427.058 433.093 427.058 433.58C427.058 434.067 426.978 434.52 426.818 434.94C426.658 435.353 426.418 435.713 426.098 436.02C425.785 436.327 425.388 436.567 424.908 436.74C424.435 436.913 423.878 437 423.238 437ZM423.008 435.49C423.395 435.49 423.728 435.443 424.008 435.35C424.295 435.25 424.532 435.117 424.718 434.95C424.905 434.777 425.042 434.573 425.128 434.34C425.222 434.107 425.268 433.853 425.268 433.58C425.268 433.307 425.222 433.053 425.128 432.82C425.042 432.587 424.905 432.387 424.718 432.22C424.532 432.047 424.295 431.913 424.008 431.82C423.728 431.72 423.395 431.67 423.008 431.67H420.178V435.49H423.008ZM437.111 435.63C437.858 435.63 438.478 435.467 438.971 435.14C439.464 434.813 439.861 434.343 440.161 433.73L441.881 434.3C441.454 435.267 440.828 436.01 440.001 436.53C439.181 437.043 438.218 437.3 437.111 437.3C436.324 437.3 435.608 437.163 434.961 436.89C434.314 436.617 433.761 436.233 433.301 435.74C432.848 435.24 432.494 434.64 432.241 433.94C431.994 433.24 431.871 432.46 431.871 431.6C431.871 430.733 431.994 429.95 432.241 429.25C432.488 428.543 432.838 427.943 433.291 427.45C433.751 426.957 434.301 426.577 434.941 426.31C435.581 426.037 436.291 425.9 437.071 425.9C437.898 425.9 438.631 426.043 439.271 426.33C439.911 426.617 440.444 427.027 440.871 427.56C441.298 428.093 441.611 428.743 441.811 429.51C442.018 430.277 442.101 431.14 442.061 432.1H433.781C433.821 432.66 433.924 433.16 434.091 433.6C434.264 434.033 434.494 434.4 434.781 434.7C435.068 435 435.404 435.23 435.791 435.39C436.184 435.55 436.624 435.63 437.111 435.63ZM440.211 430.67C440.131 429.657 439.821 428.88 439.281 428.34C438.741 427.793 438.004 427.52 437.071 427.52C436.151 427.52 435.411 427.793 434.851 428.34C434.298 428.887 433.954 429.663 433.821 430.67H440.211ZM456.331 426.2V437H454.551V428.99L449.261 437H447.481V426.2H449.261V434.21L454.551 426.2H456.331ZM458.722 437V426.2H460.502V430.76H466.182V426.2H467.962V437H466.182V432.44H460.502V437H458.722ZM474.913 437.3C474.113 437.3 473.393 437.163 472.753 436.89C472.12 436.61 471.58 436.22 471.133 435.72C470.693 435.22 470.353 434.62 470.113 433.92C469.88 433.22 469.763 432.447 469.763 431.6C469.763 430.74 469.883 429.96 470.123 429.26C470.363 428.56 470.703 427.963 471.143 427.47C471.59 426.97 472.133 426.583 472.773 426.31C473.413 426.037 474.133 425.9 474.933 425.9C475.507 425.9 476.04 425.973 476.533 426.12C477.033 426.267 477.48 426.477 477.873 426.75C478.273 427.017 478.613 427.343 478.893 427.73C479.18 428.117 479.393 428.553 479.533 429.04L477.773 429.57C477.54 428.943 477.17 428.457 476.663 428.11C476.163 427.763 475.58 427.59 474.913 427.59C474.38 427.59 473.91 427.687 473.503 427.88C473.097 428.067 472.757 428.333 472.483 428.68C472.21 429.027 472.003 429.447 471.863 429.94C471.723 430.433 471.653 430.987 471.653 431.6C471.653 432.2 471.72 432.747 471.853 433.24C471.993 433.733 472.2 434.157 472.473 434.51C472.747 434.857 473.087 435.127 473.493 435.32C473.9 435.513 474.373 435.61 474.913 435.61C475.627 435.61 476.213 435.447 476.673 435.12C477.14 434.793 477.493 434.327 477.733 433.72L479.533 434.19C479.153 435.203 478.567 435.977 477.773 436.51C476.987 437.037 476.033 437.3 474.913 437.3ZM483.594 437V427.88H479.884V426.2H489.084V427.88H485.374V437H483.594ZM490.579 441.8V426.2H492.359V427.89C492.706 427.263 493.172 426.777 493.759 426.43C494.352 426.077 495.089 425.9 495.969 425.9C496.716 425.9 497.392 426.04 497.999 426.32C498.606 426.6 499.122 426.993 499.549 427.5C499.976 428 500.302 428.6 500.529 429.3C500.762 429.993 500.879 430.757 500.879 431.59C500.879 432.437 500.762 433.21 500.529 433.91C500.296 434.61 499.966 435.213 499.539 435.72C499.112 436.22 498.596 436.61 497.989 436.89C497.382 437.163 496.709 437.3 495.969 437.3C495.089 437.3 494.352 437.123 493.759 436.77C493.172 436.417 492.706 435.93 492.359 435.31V441.8H490.579ZM495.669 435.61C496.229 435.61 496.716 435.513 497.129 435.32C497.542 435.12 497.886 434.843 498.159 434.49C498.439 434.137 498.646 433.713 498.779 433.22C498.919 432.727 498.989 432.183 498.989 431.59C498.989 430.983 498.919 430.433 498.779 429.94C498.639 429.447 498.429 429.027 498.149 428.68C497.876 428.333 497.532 428.067 497.119 427.88C496.706 427.687 496.222 427.59 495.669 427.59C495.102 427.59 494.612 427.69 494.199 427.89C493.786 428.083 493.442 428.357 493.169 428.71C492.896 429.057 492.692 429.477 492.559 429.97C492.426 430.457 492.359 430.997 492.359 431.59C492.359 432.197 492.429 432.75 492.569 433.25C492.709 433.743 492.916 434.167 493.189 434.52C493.469 434.867 493.816 435.137 494.229 435.33C494.642 435.517 495.122 435.61 495.669 435.61ZM503.886 441.8L505.666 436.96L501.286 426.2H503.156L506.526 434.7L509.686 426.2H511.496L505.616 441.8H503.886ZM512.738 437V426.2H514.518L518.168 433.36L521.818 426.2H523.598V437H521.818V429.67L518.918 435.39H517.418L514.518 429.67V437H512.738ZM530.64 435.63C531.387 435.63 532.007 435.467 532.5 435.14C532.993 434.813 533.39 434.343 533.69 433.73L535.41 434.3C534.983 435.267 534.357 436.01 533.53 436.53C532.71 437.043 531.747 437.3 530.64 437.3C529.853 437.3 529.137 437.163 528.49 436.89C527.843 436.617 527.29 436.233 526.83 435.74C526.377 435.24 526.023 434.64 525.77 433.94C525.523 433.24 525.4 432.46 525.4 431.6C525.4 430.733 525.523 429.95 525.77 429.25C526.017 428.543 526.367 427.943 526.82 427.45C527.28 426.957 527.83 426.577 528.47 426.31C529.11 426.037 529.82 425.9 530.6 425.9C531.427 425.9 532.16 426.043 532.8 426.33C533.44 426.617 533.973 427.027 534.4 427.56C534.827 428.093 535.14 428.743 535.34 429.51C535.547 430.277 535.63 431.14 535.59 432.1H527.31C527.35 432.66 527.453 433.16 527.62 433.6C527.793 434.033 528.023 434.4 528.31 434.7C528.597 435 528.933 435.23 529.32 435.39C529.713 435.55 530.153 435.63 530.64 435.63ZM533.74 430.67C533.66 429.657 533.35 428.88 532.81 428.34C532.27 427.793 531.533 427.52 530.6 427.52C529.68 427.52 528.94 427.793 528.38 428.34C527.827 428.887 527.483 429.663 527.35 430.67H533.74ZM537.406 437V426.2H539.186V430.76H544.866V426.2H546.646V437H544.866V432.44H539.186V437H537.406ZM551.858 437V427.88H548.148V426.2H557.348V427.88H553.638V437H551.858ZM568.733 437V426.2H570.513V437H568.733ZM563.683 437H558.843V426.2H560.623V430.17H563.683C564.323 430.17 564.88 430.257 565.353 430.43C565.833 430.603 566.23 430.843 566.543 431.15C566.863 431.45 567.103 431.81 567.263 432.23C567.423 432.643 567.503 433.093 567.503 433.58C567.503 434.067 567.423 434.52 567.263 434.94C567.103 435.353 566.863 435.713 566.543 436.02C566.23 436.327 565.833 436.567 565.353 436.74C564.88 436.913 564.323 437 563.683 437ZM563.453 435.49C563.84 435.49 564.173 435.443 564.453 435.35C564.74 435.25 564.976 435.117 565.163 434.95C565.35 434.777 565.486 434.573 565.573 434.34C565.666 434.107 565.713 433.853 565.713 433.58C565.713 433.307 565.666 433.053 565.573 432.82C565.486 432.587 565.35 432.387 565.163 432.22C564.976 432.047 564.74 431.913 564.453 431.82C564.173 431.72 563.84 431.67 563.453 431.67H560.623V435.49H563.453ZM0.6 459.32H1.65C1.82333 459.12 1.96 458.847 2.06 458.5C2.16667 458.147 2.25 457.743 2.31 457.29C2.37 456.837 2.41 456.347 2.43 455.82C2.45 455.287 2.46 454.74 2.46 454.18V450.2H10.51V459.32H11.91V463.3H10.13V461H2.38V463.3H0.6V459.32ZM8.73 459.32V451.88H4.13V455.12C4.13 455.573 4.11667 456.01 4.09 456.43C4.06333 456.843 4.02333 457.233 3.97 457.6C3.91667 457.96 3.85333 458.287 3.78 458.58C3.71333 458.873 3.63333 459.12 3.54 459.32H8.73ZM12.5195 459.59C12.6929 459.643 12.8429 459.67 12.9695 459.67C13.2495 459.67 13.4795 459.57 13.6595 459.37C13.8462 459.17 13.9929 458.88 14.0995 458.5C14.2129 458.12 14.2929 457.657 14.3395 457.11C14.3862 456.557 14.4095 455.93 14.4095 455.23V450.2H22.3595V461H20.5795V451.88H16.0795V455.73C16.0795 457.643 15.8629 459.05 15.4295 459.95C14.9962 460.85 14.3529 461.3 13.4995 461.3C13.1862 461.3 12.8595 461.247 12.5195 461.14V459.59ZM24.2502 461L26.3102 456.74C25.6235 456.48 25.1068 456.073 24.7602 455.52C24.4202 454.967 24.2502 454.33 24.2502 453.61C24.2502 453.123 24.3302 452.673 24.4902 452.26C24.6502 451.84 24.8868 451.48 25.2002 451.18C25.5202 450.873 25.9168 450.633 26.3902 450.46C26.8702 450.287 27.4302 450.2 28.0702 450.2H32.9102V461H31.1302V457.03H28.0502L26.1202 461H24.2502ZM28.3002 451.7C27.9135 451.7 27.5768 451.75 27.2902 451.85C27.0102 451.943 26.7768 452.077 26.5902 452.25C26.4035 452.417 26.2635 452.617 26.1702 452.85C26.0835 453.083 26.0402 453.337 26.0402 453.61C26.0402 453.883 26.0835 454.137 26.1702 454.37C26.2635 454.603 26.4035 454.807 26.5902 454.98C26.7768 455.147 27.0102 455.28 27.2902 455.38C27.5768 455.473 27.9135 455.52 28.3002 455.52H31.1302V451.7H28.3002ZM43.4711 461.3C42.6711 461.3 41.9511 461.163 41.3111 460.89C40.6778 460.61 40.1378 460.22 39.6911 459.72C39.2511 459.22 38.9111 458.62 38.6711 457.92C38.4378 457.22 38.3211 456.447 38.3211 455.6C38.3211 454.74 38.4411 453.96 38.6811 453.26C38.9211 452.56 39.2611 451.963 39.7011 451.47C40.1478 450.97 40.6911 450.583 41.3311 450.31C41.9711 450.037 42.6911 449.9 43.4911 449.9C44.0644 449.9 44.5978 449.973 45.0911 450.12C45.5911 450.267 46.0378 450.477 46.4311 450.75C46.8311 451.017 47.1711 451.343 47.4511 451.73C47.7378 452.117 47.9511 452.553 48.0911 453.04L46.3311 453.57C46.0978 452.943 45.7278 452.457 45.2211 452.11C44.7211 451.763 44.1378 451.59 43.4711 451.59C42.9378 451.59 42.4678 451.687 42.0611 451.88C41.6544 452.067 41.3144 452.333 41.0411 452.68C40.7678 453.027 40.5611 453.447 40.4211 453.94C40.2811 454.433 40.2111 454.987 40.2111 455.6C40.2111 456.2 40.2778 456.747 40.4111 457.24C40.5511 457.733 40.7578 458.157 41.0311 458.51C41.3044 458.857 41.6444 459.127 42.0511 459.32C42.4578 459.513 42.9311 459.61 43.4711 459.61C44.1844 459.61 44.7711 459.447 45.2311 459.12C45.6978 458.793 46.0511 458.327 46.2911 457.72L48.0911 458.19C47.7111 459.203 47.1244 459.977 46.3311 460.51C45.5444 461.037 44.5911 461.3 43.4711 461.3ZM54.0391 461.3C53.2391 461.3 52.5157 461.16 51.8691 460.88C51.2291 460.6 50.6824 460.21 50.2291 459.71C49.7824 459.203 49.4391 458.6 49.1991 457.9C48.9591 457.2 48.8391 456.43 48.8391 455.59C48.8391 454.743 48.9591 453.973 49.1991 453.28C49.4457 452.58 49.7924 451.98 50.2391 451.48C50.6924 450.98 51.2391 450.593 51.8791 450.32C52.5257 450.04 53.2457 449.9 54.0391 449.9C54.8457 449.9 55.5691 450.04 56.2091 450.32C56.8557 450.593 57.4024 450.983 57.8491 451.49C58.3024 451.99 58.6491 452.59 58.8891 453.29C59.1291 453.983 59.2491 454.75 59.2491 455.59C59.2491 456.437 59.1257 457.21 58.8791 457.91C58.6391 458.61 58.2924 459.213 57.8391 459.72C57.3924 460.22 56.8457 460.61 56.1991 460.89C55.5591 461.163 54.8391 461.3 54.0391 461.3ZM54.0391 459.61C54.5857 459.61 55.0657 459.517 55.4791 459.33C55.8924 459.137 56.2391 458.867 56.5191 458.52C56.7991 458.167 57.0091 457.743 57.1491 457.25C57.2891 456.75 57.3591 456.197 57.3591 455.59C57.3591 454.97 57.2891 454.413 57.1491 453.92C57.0091 453.427 56.7991 453.007 56.5191 452.66C56.2391 452.313 55.8924 452.05 55.4791 451.87C55.0657 451.683 54.5857 451.59 54.0391 451.59C53.4924 451.59 53.0091 451.683 52.5891 451.87C52.1757 452.057 51.8324 452.327 51.5591 452.68C51.2857 453.027 51.0791 453.447 50.9391 453.94C50.7991 454.427 50.7291 454.977 50.7291 455.59C50.7291 456.21 50.7991 456.767 50.9391 457.26C51.0857 457.753 51.2991 458.177 51.5791 458.53C51.8591 458.877 52.2024 459.143 52.6091 459.33C53.0224 459.517 53.4991 459.61 54.0391 459.61ZM64.5669 461.3C63.9402 461.3 63.3635 461.23 62.8369 461.09C62.3102 460.95 61.8469 460.737 61.4469 460.45C61.0469 460.157 60.7135 459.787 60.4469 459.34C60.1869 458.893 60.0035 458.367 59.8969 457.76L61.5969 457.45C61.7102 458.21 62.0135 458.777 62.5069 459.15C63.0069 459.523 63.6769 459.71 64.5169 459.71C65.3902 459.71 66.0535 459.547 66.5069 459.22C66.9669 458.893 67.1969 458.447 67.1969 457.88C67.1969 457.573 67.1402 457.313 67.0269 457.1C66.9202 456.887 66.7702 456.713 66.5769 456.58C66.3835 456.44 66.1535 456.34 65.8869 456.28C65.6202 456.22 65.3302 456.19 65.0169 456.19H63.3569V454.72H65.0169C65.6235 454.72 66.0902 454.597 66.4169 454.35C66.7502 454.103 66.9169 453.747 66.9169 453.28C66.9169 452.707 66.7135 452.267 66.3069 451.96C65.9002 451.647 65.3035 451.49 64.5169 451.49C64.1102 451.49 63.7502 451.533 63.4369 451.62C63.1302 451.707 62.8669 451.833 62.6469 452C62.4269 452.16 62.2435 452.36 62.0969 452.6C61.9569 452.84 61.8502 453.11 61.7769 453.41L60.0769 453.1C60.2235 452.5 60.4402 451.997 60.7269 451.59C61.0202 451.177 61.3635 450.847 61.7569 450.6C62.1569 450.347 62.5935 450.167 63.0669 450.06C63.5402 449.953 64.0369 449.9 64.5569 449.9C65.2102 449.9 65.7902 449.977 66.2969 450.13C66.8102 450.277 67.2435 450.493 67.5969 450.78C67.9502 451.06 68.2169 451.403 68.3969 451.81C68.5835 452.21 68.6769 452.667 68.6769 453.18C68.6769 453.733 68.5569 454.193 68.3169 454.56C68.0769 454.927 67.7269 455.21 67.2669 455.41C67.5069 455.483 67.7302 455.597 67.9369 455.75C68.1435 455.903 68.3235 456.087 68.4769 456.3C68.6302 456.513 68.7502 456.757 68.8369 457.03C68.9235 457.297 68.9669 457.587 68.9669 457.9C68.9669 458.4 68.8669 458.86 68.6669 459.28C68.4735 459.693 68.1869 460.05 67.8069 460.35C67.4335 460.65 66.9735 460.883 66.4269 461.05C65.8802 461.217 65.2602 461.3 64.5669 461.3ZM69.968 459.32H71.018C71.1913 459.12 71.328 458.847 71.428 458.5C71.5346 458.147 71.618 457.743 71.678 457.29C71.738 456.837 71.778 456.347 71.798 455.82C71.818 455.287 71.828 454.74 71.828 454.18V450.2H79.878V459.32H81.278V463.3H79.498V461H71.748V463.3H69.968V459.32ZM78.098 459.32V451.88H73.498V455.12C73.498 455.573 73.4846 456.01 73.458 456.43C73.4313 456.843 73.3913 457.233 73.338 457.6C73.2846 457.96 73.2213 458.287 73.148 458.58C73.0813 458.873 73.0013 459.12 72.908 459.32H78.098ZM87.1475 449.9C88.6208 449.9 89.7208 450.28 90.4475 451.04C91.1742 451.793 91.5375 452.937 91.5375 454.47V461H89.7575V459.3C89.3775 459.96 88.8708 460.46 88.2375 460.8C87.6108 461.133 86.8608 461.3 85.9875 461.3C85.4208 461.3 84.9075 461.227 84.4475 461.08C83.9942 460.933 83.6075 460.723 83.2875 460.45C82.9675 460.17 82.7208 459.837 82.5475 459.45C82.3742 459.057 82.2875 458.617 82.2875 458.13C82.2875 457.577 82.3875 457.097 82.5875 456.69C82.7942 456.283 83.0842 455.94 83.4575 455.66C83.8375 455.38 84.2942 455.157 84.8275 454.99C85.3675 454.823 85.9742 454.697 86.6475 454.61L89.7575 454.23C89.7508 453.283 89.5342 452.593 89.1075 452.16C88.6808 451.727 88.0208 451.51 87.1275 451.51C86.3608 451.51 85.7508 451.66 85.2975 451.96C84.8442 452.26 84.5275 452.727 84.3475 453.36L82.6875 452.94C82.9542 451.947 83.4675 451.193 84.2275 450.68C84.9942 450.16 85.9675 449.9 87.1475 449.9ZM86.8475 455.98C85.8608 456.107 85.1475 456.33 84.7075 456.65C84.2675 456.963 84.0475 457.417 84.0475 458.01C84.0475 458.59 84.2408 459.027 84.6275 459.32C85.0142 459.613 85.5908 459.76 86.3575 459.76C86.7775 459.76 87.1642 459.703 87.5175 459.59C87.8775 459.47 88.1942 459.303 88.4675 459.09C88.7475 458.877 88.9808 458.62 89.1675 458.32C89.3608 458.02 89.5008 457.687 89.5875 457.32C89.6742 457.047 89.7242 456.76 89.7375 456.46C89.7508 456.16 89.7575 455.89 89.7575 455.65V455.62L86.8475 455.98ZM93.7275 461V450.2H95.5075V454.76H101.188V450.2H102.968V461H101.188V456.44H95.5075V461H93.7275ZM114.209 450.2V461H112.429V452.99L107.139 461H105.359V450.2H107.139V458.21L112.429 450.2H114.209ZM116.099 461L118.159 456.74C117.473 456.48 116.956 456.073 116.609 455.52C116.269 454.967 116.099 454.33 116.099 453.61C116.099 453.123 116.179 452.673 116.339 452.26C116.499 451.84 116.736 451.48 117.049 451.18C117.369 450.873 117.766 450.633 118.239 450.46C118.719 450.287 119.279 450.2 119.919 450.2H124.759V461H122.979V457.03H119.899L117.969 461H116.099ZM120.149 451.7C119.763 451.7 119.426 451.75 119.139 451.85C118.859 451.943 118.626 452.077 118.439 452.25C118.253 452.417 118.113 452.617 118.019 452.85C117.933 453.083 117.889 453.337 117.889 453.61C117.889 453.883 117.933 454.137 118.019 454.37C118.113 454.603 118.253 454.807 118.439 454.98C118.626 455.147 118.859 455.28 119.139 455.38C119.426 455.473 119.763 455.52 120.149 455.52H122.979V451.7H120.149Z" fill="white" fill-opacity="0.52"/>
<path d="M130.77 461V450.2H137.82V451.88H132.56V461H130.77ZM143.72 461.3C142.92 461.3 142.197 461.16 141.55 460.88C140.91 460.6 140.364 460.21 139.91 459.71C139.464 459.203 139.12 458.6 138.88 457.9C138.64 457.2 138.52 456.43 138.52 455.59C138.52 454.743 138.64 453.973 138.88 453.28C139.127 452.58 139.474 451.98 139.92 451.48C140.374 450.98 140.92 450.593 141.56 450.32C142.207 450.04 142.927 449.9 143.72 449.9C144.527 449.9 145.25 450.04 145.89 450.32C146.537 450.593 147.084 450.983 147.53 451.49C147.984 451.99 148.33 452.59 148.57 453.29C148.81 453.983 148.93 454.75 148.93 455.59C148.93 456.437 148.807 457.21 148.56 457.91C148.32 458.61 147.974 459.213 147.52 459.72C147.074 460.22 146.527 460.61 145.88 460.89C145.24 461.163 144.52 461.3 143.72 461.3ZM143.72 459.61C144.267 459.61 144.747 459.517 145.16 459.33C145.574 459.137 145.92 458.867 146.2 458.52C146.48 458.167 146.69 457.743 146.83 457.25C146.97 456.75 147.04 456.197 147.04 455.59C147.04 454.97 146.97 454.413 146.83 453.92C146.69 453.427 146.48 453.007 146.2 452.66C145.92 452.313 145.574 452.05 145.16 451.87C144.747 451.683 144.267 451.59 143.72 451.59C143.174 451.59 142.69 451.683 142.27 451.87C141.857 452.057 141.514 452.327 141.24 452.68C140.967 453.027 140.76 453.447 140.62 453.94C140.48 454.427 140.41 454.977 140.41 455.59C140.41 456.21 140.48 456.767 140.62 457.26C140.767 457.753 140.98 458.177 141.26 458.53C141.54 458.877 141.884 459.143 142.29 459.33C142.704 459.517 143.18 459.61 143.72 459.61ZM153.288 461V451.88H149.578V450.2H158.778V451.88H155.068V461H153.288ZM164.678 461.3C163.878 461.3 163.155 461.16 162.508 460.88C161.868 460.6 161.321 460.21 160.868 459.71C160.421 459.203 160.078 458.6 159.838 457.9C159.598 457.2 159.478 456.43 159.478 455.59C159.478 454.743 159.598 453.973 159.838 453.28C160.085 452.58 160.431 451.98 160.878 451.48C161.331 450.98 161.878 450.593 162.518 450.32C163.165 450.04 163.885 449.9 164.678 449.9C165.485 449.9 166.208 450.04 166.848 450.32C167.495 450.593 168.041 450.983 168.488 451.49C168.941 451.99 169.288 452.59 169.528 453.29C169.768 453.983 169.888 454.75 169.888 455.59C169.888 456.437 169.765 457.21 169.518 457.91C169.278 458.61 168.931 459.213 168.478 459.72C168.031 460.22 167.485 460.61 166.838 460.89C166.198 461.163 165.478 461.3 164.678 461.3ZM164.678 459.61C165.225 459.61 165.705 459.517 166.118 459.33C166.531 459.137 166.878 458.867 167.158 458.52C167.438 458.167 167.648 457.743 167.788 457.25C167.928 456.75 167.998 456.197 167.998 455.59C167.998 454.97 167.928 454.413 167.788 453.92C167.648 453.427 167.438 453.007 167.158 452.66C166.878 452.313 166.531 452.05 166.118 451.87C165.705 451.683 165.225 451.59 164.678 451.59C164.131 451.59 163.648 451.683 163.228 451.87C162.815 452.057 162.471 452.327 162.198 452.68C161.925 453.027 161.718 453.447 161.578 453.94C161.438 454.427 161.368 454.977 161.368 455.59C161.368 456.21 161.438 456.767 161.578 457.26C161.725 457.753 161.938 458.177 162.218 458.53C162.498 458.877 162.841 459.143 163.248 459.33C163.661 459.517 164.138 459.61 164.678 459.61ZM176.19 461H171.68V450.2H176C177.267 450.2 178.23 450.447 178.89 450.94C179.55 451.427 179.88 452.147 179.88 453.1C179.88 453.707 179.743 454.2 179.47 454.58C179.197 454.96 178.837 455.237 178.39 455.41C178.643 455.483 178.88 455.597 179.1 455.75C179.32 455.903 179.51 456.093 179.67 456.32C179.837 456.54 179.967 456.793 180.06 457.08C180.153 457.367 180.2 457.677 180.2 458.01C180.2 458.99 179.86 459.733 179.18 460.24C178.5 460.747 177.503 461 176.19 461ZM176 451.67H173.35V454.76H176.3C176.573 454.76 176.823 454.733 177.05 454.68C177.283 454.62 177.48 454.53 177.64 454.41C177.807 454.283 177.933 454.127 178.02 453.94C178.113 453.753 178.16 453.53 178.16 453.27C178.16 452.697 177.987 452.287 177.64 452.04C177.3 451.793 176.753 451.67 176 451.67ZM176.16 459.53C176.927 459.53 177.503 459.4 177.89 459.14C178.283 458.88 178.48 458.463 178.48 457.89C178.48 457.59 178.427 457.333 178.32 457.12C178.22 456.907 178.08 456.733 177.9 456.6C177.72 456.46 177.507 456.36 177.26 456.3C177.02 456.24 176.76 456.21 176.48 456.21H173.36V459.53H176.16ZM186.398 461.3C185.598 461.3 184.874 461.16 184.228 460.88C183.588 460.6 183.041 460.21 182.588 459.71C182.141 459.203 181.798 458.6 181.558 457.9C181.318 457.2 181.198 456.43 181.198 455.59C181.198 454.743 181.318 453.973 181.558 453.28C181.804 452.58 182.151 451.98 182.598 451.48C183.051 450.98 183.598 450.593 184.238 450.32C184.884 450.04 185.604 449.9 186.398 449.9C187.204 449.9 187.928 450.04 188.568 450.32C189.214 450.593 189.761 450.983 190.208 451.49C190.661 451.99 191.008 452.59 191.248 453.29C191.488 453.983 191.608 454.75 191.608 455.59C191.608 456.437 191.484 457.21 191.238 457.91C190.998 458.61 190.651 459.213 190.198 459.72C189.751 460.22 189.204 460.61 188.558 460.89C187.918 461.163 187.198 461.3 186.398 461.3ZM186.398 459.61C186.944 459.61 187.424 459.517 187.838 459.33C188.251 459.137 188.598 458.867 188.878 458.52C189.158 458.167 189.368 457.743 189.508 457.25C189.648 456.75 189.718 456.197 189.718 455.59C189.718 454.97 189.648 454.413 189.508 453.92C189.368 453.427 189.158 453.007 188.878 452.66C188.598 452.313 188.251 452.05 187.838 451.87C187.424 451.683 186.944 451.59 186.398 451.59C185.851 451.59 185.368 451.683 184.948 451.87C184.534 452.057 184.191 452.327 183.918 452.68C183.644 453.027 183.438 453.447 183.298 453.94C183.158 454.427 183.088 454.977 183.088 455.59C183.088 456.21 183.158 456.767 183.298 457.26C183.444 457.753 183.658 458.177 183.938 458.53C184.218 458.877 184.561 459.143 184.968 459.33C185.381 459.517 185.858 459.61 186.398 459.61ZM193.409 461V450.2H200.459V451.88H195.199V461H193.409ZM206.359 461.3C205.559 461.3 204.836 461.16 204.189 460.88C203.549 460.6 203.003 460.21 202.549 459.71C202.103 459.203 201.759 458.6 201.519 457.9C201.279 457.2 201.159 456.43 201.159 455.59C201.159 454.743 201.279 453.973 201.519 453.28C201.766 452.58 202.113 451.98 202.559 451.48C203.013 450.98 203.559 450.593 204.199 450.32C204.846 450.04 205.566 449.9 206.359 449.9C207.166 449.9 207.889 450.04 208.529 450.32C209.176 450.593 209.723 450.983 210.169 451.49C210.623 451.99 210.969 452.59 211.209 453.29C211.449 453.983 211.569 454.75 211.569 455.59C211.569 456.437 211.446 457.21 211.199 457.91C210.959 458.61 210.613 459.213 210.159 459.72C209.713 460.22 209.166 460.61 208.519 460.89C207.879 461.163 207.159 461.3 206.359 461.3ZM206.359 459.61C206.906 459.61 207.386 459.517 207.799 459.33C208.213 459.137 208.559 458.867 208.839 458.52C209.119 458.167 209.329 457.743 209.469 457.25C209.609 456.75 209.679 456.197 209.679 455.59C209.679 454.97 209.609 454.413 209.469 453.92C209.329 453.427 209.119 453.007 208.839 452.66C208.559 452.313 208.213 452.05 207.799 451.87C207.386 451.683 206.906 451.59 206.359 451.59C205.813 451.59 205.329 451.683 204.909 451.87C204.496 452.057 204.153 452.327 203.879 452.68C203.606 453.027 203.399 453.447 203.259 453.94C203.119 454.427 203.049 454.977 203.049 455.59C203.049 456.21 203.119 456.767 203.259 457.26C203.406 457.753 203.619 458.177 203.899 458.53C204.179 458.877 204.523 459.143 204.929 459.33C205.343 459.517 205.819 459.61 206.359 459.61ZM216.965 461V450.2H225.715V461H223.935V451.88H218.745V461H216.965ZM228.118 465.8V450.2H229.898V451.89C230.245 451.263 230.711 450.777 231.298 450.43C231.891 450.077 232.628 449.9 233.508 449.9C234.255 449.9 234.931 450.04 235.538 450.32C236.145 450.6 236.661 450.993 237.088 451.5C237.515 452 237.841 452.6 238.068 453.3C238.301 453.993 238.418 454.757 238.418 455.59C238.418 456.437 238.301 457.21 238.068 457.91C237.835 458.61 237.505 459.213 237.078 459.72C236.651 460.22 236.135 460.61 235.528 460.89C234.921 461.163 234.248 461.3 233.508 461.3C232.628 461.3 231.891 461.123 231.298 460.77C230.711 460.417 230.245 459.93 229.898 459.31V465.8H228.118ZM233.208 459.61C233.768 459.61 234.255 459.513 234.668 459.32C235.081 459.12 235.425 458.843 235.698 458.49C235.978 458.137 236.185 457.713 236.318 457.22C236.458 456.727 236.528 456.183 236.528 455.59C236.528 454.983 236.458 454.433 236.318 453.94C236.178 453.447 235.968 453.027 235.688 452.68C235.415 452.333 235.071 452.067 234.658 451.88C234.245 451.687 233.761 451.59 233.208 451.59C232.641 451.59 232.151 451.69 231.738 451.89C231.325 452.083 230.981 452.357 230.708 452.71C230.435 453.057 230.231 453.477 230.098 453.97C229.965 454.457 229.898 454.997 229.898 455.59C229.898 456.197 229.968 456.75 230.108 457.25C230.248 457.743 230.455 458.167 230.728 458.52C231.008 458.867 231.355 459.137 231.768 459.33C232.181 459.517 232.661 459.61 233.208 459.61ZM244.818 461.3C244.018 461.3 243.295 461.16 242.648 460.88C242.008 460.6 241.461 460.21 241.008 459.71C240.561 459.203 240.218 458.6 239.978 457.9C239.738 457.2 239.618 456.43 239.618 455.59C239.618 454.743 239.738 453.973 239.978 453.28C240.225 452.58 240.571 451.98 241.018 451.48C241.471 450.98 242.018 450.593 242.658 450.32C243.305 450.04 244.025 449.9 244.818 449.9C245.625 449.9 246.348 450.04 246.988 450.32C247.635 450.593 248.181 450.983 248.628 451.49C249.081 451.99 249.428 452.59 249.668 453.29C249.908 453.983 250.028 454.75 250.028 455.59C250.028 456.437 249.905 457.21 249.658 457.91C249.418 458.61 249.071 459.213 248.618 459.72C248.171 460.22 247.625 460.61 246.978 460.89C246.338 461.163 245.618 461.3 244.818 461.3ZM244.818 459.61C245.365 459.61 245.845 459.517 246.258 459.33C246.671 459.137 247.018 458.867 247.298 458.52C247.578 458.167 247.788 457.743 247.928 457.25C248.068 456.75 248.138 456.197 248.138 455.59C248.138 454.97 248.068 454.413 247.928 453.92C247.788 453.427 247.578 453.007 247.298 452.66C247.018 452.313 246.671 452.05 246.258 451.87C245.845 451.683 245.365 451.59 244.818 451.59C244.271 451.59 243.788 451.683 243.368 451.87C242.955 452.057 242.611 452.327 242.338 452.68C242.065 453.027 241.858 453.447 241.718 453.94C241.578 454.427 241.508 454.977 241.508 455.59C241.508 456.21 241.578 456.767 241.718 457.26C241.865 457.753 242.078 458.177 242.358 458.53C242.638 458.877 242.981 459.143 243.388 459.33C243.801 459.517 244.278 459.61 244.818 459.61ZM251.03 459.32H252.08C252.253 459.12 252.39 458.847 252.49 458.5C252.596 458.147 252.68 457.743 252.74 457.29C252.8 456.837 252.84 456.347 252.86 455.82C252.88 455.287 252.89 454.74 252.89 454.18V450.2H260.94V459.32H262.34V463.3H260.56V461H252.81V463.3H251.03V459.32ZM259.16 459.32V451.88H254.56V455.12C254.56 455.573 254.546 456.01 254.52 456.43C254.493 456.843 254.453 457.233 254.4 457.6C254.346 457.96 254.283 458.287 254.21 458.58C254.143 458.873 254.063 459.12 253.97 459.32H259.16ZM265.449 465.8L267.229 460.96L262.849 450.2H264.719L268.089 458.7L271.249 450.2H273.059L267.179 465.8H265.449ZM274.301 450.2H276.081V455.4L280.611 450.2H282.921L278.151 455.6L283.481 461H280.991L276.081 455.8V461H274.301V450.2ZM286.897 461V451.88H283.187V450.2H292.387V451.88H288.677V461H286.897ZM297.79 449.9C299.264 449.9 300.364 450.28 301.09 451.04C301.817 451.793 302.18 452.937 302.18 454.47V461H300.4V459.3C300.02 459.96 299.514 460.46 298.88 460.8C298.254 461.133 297.504 461.3 296.63 461.3C296.064 461.3 295.55 461.227 295.09 461.08C294.637 460.933 294.25 460.723 293.93 460.45C293.61 460.17 293.364 459.837 293.19 459.45C293.017 459.057 292.93 458.617 292.93 458.13C292.93 457.577 293.03 457.097 293.23 456.69C293.437 456.283 293.727 455.94 294.1 455.66C294.48 455.38 294.937 455.157 295.47 454.99C296.01 454.823 296.617 454.697 297.29 454.61L300.4 454.23C300.394 453.283 300.177 452.593 299.75 452.16C299.324 451.727 298.664 451.51 297.77 451.51C297.004 451.51 296.394 451.66 295.94 451.96C295.487 452.26 295.17 452.727 294.99 453.36L293.33 452.94C293.597 451.947 294.11 451.193 294.87 450.68C295.637 450.16 296.61 449.9 297.79 449.9ZM297.49 455.98C296.504 456.107 295.79 456.33 295.35 456.65C294.91 456.963 294.69 457.417 294.69 458.01C294.69 458.59 294.884 459.027 295.27 459.32C295.657 459.613 296.234 459.76 297 459.76C297.42 459.76 297.807 459.703 298.16 459.59C298.52 459.47 298.837 459.303 299.11 459.09C299.39 458.877 299.624 458.62 299.81 458.32C300.004 458.02 300.144 457.687 300.23 457.32C300.317 457.047 300.367 456.76 300.38 456.46C300.394 456.16 300.4 455.89 300.4 455.65V455.62L297.49 455.98Z" fill="white"/>
<g opacity="0.52" filter="url(#filter0_b_650_553)">
<path d="M6.3 79V14.2H55.125V79H47.07V21.805H14.355V79H6.3ZM64.1355 100.6V30.4H72.1455V38.005C73.7055 35.185 75.8055 32.995 78.4455 31.435C81.1156 29.845 84.4306 29.05 88.3905 29.05C91.7505 29.05 94.7955 29.68 97.5255 30.94C100.256 32.2 102.581 33.97 104.501 36.25C106.421 38.5 107.891 41.2 108.911 44.35C109.961 47.47 110.486 50.905 110.486 54.655C110.486 58.465 109.961 61.945 108.911 65.095C107.861 68.245 106.376 70.96 104.456 73.24C102.536 75.49 100.211 77.245 97.4806 78.505C94.7505 79.735 91.7205 80.35 88.3905 80.35C84.4306 80.35 81.1156 79.555 78.4455 77.965C75.8055 76.375 73.7055 74.185 72.1455 71.395V100.6H64.1355ZM87.0406 72.745C89.5606 72.745 91.7505 72.31 93.6105 71.44C95.4706 70.54 97.0156 69.295 98.2456 67.705C99.5056 66.115 100.436 64.21 101.036 61.99C101.666 59.77 101.981 57.325 101.981 54.655C101.981 51.925 101.666 49.45 101.036 47.23C100.406 45.01 99.4606 43.12 98.2005 41.56C96.9706 40 95.4256 38.8 93.5655 37.96C91.7056 37.09 89.5306 36.655 87.0406 36.655C84.4905 36.655 82.2855 37.105 80.4255 38.005C78.5655 38.875 77.0205 40.105 75.7905 41.695C74.5605 43.255 73.6455 45.145 73.0455 47.365C72.4455 49.555 72.1455 51.985 72.1455 54.655C72.1455 57.385 72.4605 59.875 73.0905 62.125C73.7205 64.345 74.6505 66.25 75.8805 67.84C77.1405 69.4 78.7005 70.615 80.5605 71.485C82.4205 72.325 84.5806 72.745 87.0406 72.745ZM137.666 72.835C141.026 72.835 143.816 72.1 146.036 70.63C148.256 69.16 150.041 67.045 151.391 64.285L159.131 66.85C157.211 71.2 154.391 74.545 150.671 76.885C146.981 79.195 142.646 80.35 137.666 80.35C134.126 80.35 130.901 79.735 127.991 78.505C125.081 77.275 122.591 75.55 120.521 73.33C118.481 71.08 116.891 68.38 115.751 65.23C114.641 62.08 114.086 58.57 114.086 54.7C114.086 50.8 114.641 47.275 115.751 44.125C116.861 40.945 118.436 38.245 120.476 36.025C122.546 33.805 125.021 32.095 127.901 30.895C130.781 29.665 133.976 29.05 137.486 29.05C141.206 29.05 144.506 29.695 147.386 30.985C150.266 32.275 152.666 34.12 154.586 36.52C156.506 38.92 157.916 41.845 158.816 45.295C159.746 48.745 160.121 52.63 159.941 56.95H122.681C122.861 59.47 123.326 61.72 124.076 63.7C124.856 65.65 125.891 67.3 127.181 68.65C128.471 70 129.986 71.035 131.726 71.755C133.496 72.475 135.476 72.835 137.666 72.835ZM151.616 50.515C151.256 45.955 149.861 42.46 147.431 40.03C145.001 37.57 141.686 36.34 137.486 36.34C133.346 36.34 130.016 37.57 127.496 40.03C125.006 42.49 123.461 45.985 122.861 50.515H151.616ZM186.609 79H166.314V30.4H185.754C191.454 30.4 195.789 31.51 198.759 33.73C201.729 35.92 203.214 39.16 203.214 43.45C203.214 46.18 202.599 48.4 201.369 50.11C200.139 51.82 198.519 53.065 196.509 53.845C197.649 54.175 198.714 54.685 199.704 55.375C200.694 56.065 201.549 56.92 202.269 57.94C203.019 58.93 203.604 60.07 204.024 61.36C204.444 62.65 204.654 64.045 204.654 65.545C204.654 69.955 203.124 73.3 200.064 75.58C197.004 77.86 192.519 79 186.609 79ZM185.754 37.015H173.829V50.92H187.104C188.334 50.92 189.459 50.8 190.479 50.56C191.529 50.29 192.414 49.885 193.134 49.345C193.884 48.775 194.454 48.07 194.844 47.23C195.264 46.39 195.474 45.385 195.474 44.215C195.474 41.635 194.694 39.79 193.134 38.68C191.604 37.57 189.144 37.015 185.754 37.015ZM186.474 72.385C189.924 72.385 192.519 71.8 194.259 70.63C196.029 69.46 196.914 67.585 196.914 65.005C196.914 63.655 196.674 62.5 196.194 61.54C195.744 60.58 195.114 59.8 194.304 59.2C193.494 58.57 192.534 58.12 191.424 57.85C190.344 57.58 189.174 57.445 187.914 57.445H173.874V72.385H186.474ZM210.045 100.6V30.4H218.055V38.005C219.615 35.185 221.715 32.995 224.355 31.435C227.025 29.845 230.34 29.05 234.3 29.05C237.66 29.05 240.705 29.68 243.435 30.94C246.165 32.2 248.49 33.97 250.41 36.25C252.33 38.5 253.8 41.2 254.82 44.35C255.87 47.47 256.395 50.905 256.395 54.655C256.395 58.465 255.87 61.945 254.82 65.095C253.77 68.245 252.285 70.96 250.365 73.24C248.445 75.49 246.12 77.245 243.39 78.505C240.66 79.735 237.63 80.35 234.3 80.35C230.34 80.35 227.025 79.555 224.355 77.965C221.715 76.375 219.615 74.185 218.055 71.395V100.6H210.045ZM232.95 72.745C235.47 72.745 237.66 72.31 239.52 71.44C241.38 70.54 242.925 69.295 244.155 67.705C245.415 66.115 246.345 64.21 246.945 61.99C247.575 59.77 247.89 57.325 247.89 54.655C247.89 51.925 247.575 49.45 246.945 47.23C246.315 45.01 245.37 43.12 244.11 41.56C242.88 40 241.335 38.8 239.475 37.96C237.615 37.09 235.44 36.655 232.95 36.655C230.4 36.655 228.195 37.105 226.335 38.005C224.475 38.875 222.93 40.105 221.7 41.695C220.47 43.255 219.555 45.145 218.955 47.365C218.355 49.555 218.055 51.985 218.055 54.655C218.055 57.385 218.37 59.875 219 62.125C219.63 64.345 220.56 66.25 221.79 67.84C223.05 69.4 224.61 70.615 226.47 71.485C228.33 72.325 230.49 72.745 232.95 72.745ZM281.865 29.05C288.495 29.05 293.445 30.76 296.715 34.18C299.985 37.57 301.62 42.715 301.62 49.615V79H293.61V71.35C291.9 74.32 289.62 76.57 286.77 78.1C283.95 79.6 280.575 80.35 276.645 80.35C274.095 80.35 271.785 80.02 269.715 79.36C267.675 78.7 265.935 77.755 264.495 76.525C263.055 75.265 261.945 73.765 261.165 72.025C260.385 70.255 259.995 68.275 259.995 66.085C259.995 63.595 260.445 61.435 261.345 59.605C262.275 57.775 263.58 56.23 265.26 54.97C266.97 53.71 269.025 52.705 271.425 51.955C273.855 51.205 276.585 50.635 279.615 50.245L293.61 48.535C293.58 44.275 292.605 41.17 290.685 39.22C288.765 37.27 285.795 36.295 281.775 36.295C278.325 36.295 275.58 36.97 273.54 38.32C271.5 39.67 270.075 41.77 269.265 44.62L261.795 42.73C262.995 38.26 265.305 34.87 268.725 32.56C272.175 30.22 276.555 29.05 281.865 29.05ZM280.515 56.41C276.075 56.98 272.865 57.985 270.885 59.425C268.905 60.835 267.915 62.875 267.915 65.545C267.915 68.155 268.785 70.12 270.525 71.44C272.265 72.76 274.86 73.42 278.31 73.42C280.2 73.42 281.94 73.165 283.53 72.655C285.15 72.115 286.575 71.365 287.805 70.405C289.065 69.445 290.115 68.29 290.955 66.94C291.825 65.59 292.455 64.09 292.845 62.44C293.235 61.21 293.46 59.92 293.52 58.57C293.58 57.22 293.61 56.005 293.61 54.925V54.79L280.515 56.41ZM372 89.35V79H309.72V30.4H317.73V71.44H337.71V30.4H345.72V71.44H365.7V30.4H373.71V71.44H380.01V89.35H372ZM402.809 29.05C409.439 29.05 414.389 30.76 417.659 34.18C420.929 37.57 422.564 42.715 422.564 49.615V79H414.554V71.35C412.844 74.32 410.564 76.57 407.714 78.1C404.894 79.6 401.519 80.35 397.589 80.35C395.039 80.35 392.729 80.02 390.659 79.36C388.619 78.7 386.879 77.755 385.439 76.525C383.999 75.265 382.889 73.765 382.109 72.025C381.329 70.255 380.939 68.275 380.939 66.085C380.939 63.595 381.389 61.435 382.289 59.605C383.219 57.775 384.524 56.23 386.204 54.97C387.914 53.71 389.969 52.705 392.369 51.955C394.799 51.205 397.529 50.635 400.559 50.245L414.554 48.535C414.524 44.275 413.549 41.17 411.629 39.22C409.709 37.27 406.739 36.295 402.719 36.295C399.269 36.295 396.524 36.97 394.484 38.32C392.444 39.67 391.019 41.77 390.209 44.62L382.739 42.73C383.939 38.26 386.249 34.87 389.669 32.56C393.119 30.22 397.499 29.05 402.809 29.05ZM401.459 56.41C397.019 56.98 393.809 57.985 391.829 59.425C389.849 60.835 388.859 62.875 388.859 65.545C388.859 68.155 389.729 70.12 391.469 71.44C393.209 72.76 395.804 73.42 399.254 73.42C401.144 73.42 402.884 73.165 404.474 72.655C406.094 72.115 407.519 71.365 408.749 70.405C410.009 69.445 411.059 68.29 411.899 66.94C412.769 65.59 413.399 64.09 413.789 62.44C414.179 61.21 414.404 59.92 414.464 58.57C414.524 57.22 414.554 56.005 414.554 54.925V54.79L401.459 56.41ZM451.544 72.835C454.904 72.835 457.694 72.1 459.914 70.63C462.134 69.16 463.919 67.045 465.269 64.285L473.009 66.85C471.089 71.2 468.269 74.545 464.549 76.885C460.859 79.195 456.524 80.35 451.544 80.35C448.004 80.35 444.779 79.735 441.869 78.505C438.959 77.275 436.469 75.55 434.399 73.33C432.359 71.08 430.769 68.38 429.629 65.23C428.519 62.08 427.964 58.57 427.964 54.7C427.964 50.8 428.519 47.275 429.629 44.125C430.739 40.945 432.314 38.245 434.354 36.025C436.424 33.805 438.899 32.095 441.779 30.895C444.659 29.665 447.854 29.05 451.364 29.05C455.084 29.05 458.384 29.695 461.264 30.985C464.144 32.275 466.544 34.12 468.464 36.52C470.384 38.92 471.794 41.845 472.694 45.295C473.624 48.745 473.999 52.63 473.819 56.95H436.559C436.739 59.47 437.204 61.72 437.954 63.7C438.734 65.65 439.769 67.3 441.059 68.65C442.349 70 443.864 71.035 445.604 71.755C447.374 72.475 449.354 72.835 451.544 72.835ZM465.494 50.515C465.134 45.955 463.739 42.46 461.309 40.03C458.879 37.57 455.564 36.34 451.364 36.34C447.224 36.34 443.894 37.57 441.374 40.03C438.884 42.49 437.339 45.985 436.739 50.515H465.494ZM478.875 79V30.4H486.885L503.31 62.62L519.735 30.4H527.745V79H519.735V46.015L506.685 71.755H499.935L486.885 46.015V79H478.875Z" fill="white"/>
</g>
<g opacity="0.52" filter="url(#filter1_b_650_553)">
<path d="M26.55 169H6.255V120.4H25.695C31.395 120.4 35.73 121.51 38.7 123.73C41.67 125.92 43.155 129.16 43.155 133.45C43.155 136.18 42.54 138.4 41.31 140.11C40.08 141.82 38.46 143.065 36.45 143.845C37.59 144.175 38.655 144.685 39.645 145.375C40.635 146.065 41.49 146.92 42.21 147.94C42.96 148.93 43.545 150.07 43.965 151.36C44.385 152.65 44.595 154.045 44.595 155.545C44.595 159.955 43.065 163.3 40.005 165.58C36.945 167.86 32.46 169 26.55 169ZM25.695 127.015H13.77V140.92H27.045C28.275 140.92 29.4 140.8 30.42 140.56C31.47 140.29 32.355 139.885 33.075 139.345C33.825 138.775 34.395 138.07 34.785 137.23C35.205 136.39 35.415 135.385 35.415 134.215C35.415 131.635 34.635 129.79 33.075 128.68C31.545 127.57 29.085 127.015 25.695 127.015ZM26.415 162.385C29.865 162.385 32.46 161.8 34.2 160.63C35.97 159.46 36.855 157.585 36.855 155.005C36.855 153.655 36.615 152.5 36.135 151.54C35.685 150.58 35.055 149.8 34.245 149.2C33.435 148.57 32.475 148.12 31.365 147.85C30.285 147.58 29.115 147.445 27.855 147.445H13.815V162.385H26.415ZM69.1552 119.05C75.7852 119.05 80.7352 120.76 84.0052 124.18C87.2752 127.57 88.9102 132.715 88.9102 139.615V169H80.9002V161.35C79.1902 164.32 76.9102 166.57 74.0602 168.1C71.2402 169.6 67.8652 170.35 63.9352 170.35C61.3852 170.35 59.0752 170.02 57.0052 169.36C54.9652 168.7 53.2252 167.755 51.7852 166.525C50.3452 165.265 49.2352 163.765 48.4552 162.025C47.6752 160.255 47.2852 158.275 47.2852 156.085C47.2852 153.595 47.7352 151.435 48.6352 149.605C49.5652 147.775 50.8702 146.23 52.5502 144.97C54.2602 143.71 56.3152 142.705 58.7152 141.955C61.1452 141.205 63.8752 140.635 66.9052 140.245L80.9002 138.535C80.8702 134.275 79.8952 131.17 77.9752 129.22C76.0552 127.27 73.0852 126.295 69.0652 126.295C65.6152 126.295 62.8702 126.97 60.8302 128.32C58.7902 129.67 57.3652 131.77 56.5552 134.62L49.0852 132.73C50.2852 128.26 52.5952 124.87 56.0152 122.56C59.4652 120.22 63.8452 119.05 69.1552 119.05ZM67.8052 146.41C63.3652 146.98 60.1552 147.985 58.1752 149.425C56.1952 150.835 55.2052 152.875 55.2052 155.545C55.2052 158.155 56.0752 160.12 57.8152 161.44C59.5552 162.76 62.1502 163.42 65.6002 163.42C67.4902 163.42 69.2302 163.165 70.8202 162.655C72.4402 162.115 73.8652 161.365 75.0952 160.405C76.3552 159.445 77.4052 158.29 78.2452 156.94C79.1152 155.59 79.7452 154.09 80.1352 152.44C80.5252 151.21 80.7502 149.92 80.8102 148.57C80.8702 147.22 80.9002 146.005 80.9002 144.925V144.79L67.8052 146.41ZM96.9652 120.4H104.975V161.44H124.955V120.4H132.965V161.44H152.945V120.4H160.955V169H96.9652V120.4ZM209.743 120.4V169H201.733V132.955L177.928 169H169.918V120.4H177.928V156.445L201.733 120.4H209.743ZM272.943 120.4V169H264.933V132.955L241.128 169H233.118V120.4H241.128V156.445L264.933 120.4H272.943ZM278.346 161.44H283.071C283.851 160.54 284.466 159.31 284.916 157.75C285.396 156.16 285.771 154.345 286.041 152.305C286.311 150.265 286.491 148.06 286.581 145.69C286.671 143.29 286.716 140.83 286.716 138.31V120.4H322.941V161.44H329.241V179.35H321.231V169H286.356V179.35H278.346V161.44ZM314.931 161.44V127.96H294.231V142.54C294.231 144.58 294.171 146.545 294.051 148.435C293.931 150.295 293.751 152.05 293.511 153.7C293.271 155.32 292.986 156.79 292.656 158.11C292.356 159.43 291.996 160.54 291.576 161.44H314.931ZM355.564 162.835C358.924 162.835 361.714 162.1 363.934 160.63C366.154 159.16 367.939 157.045 369.289 154.285L377.029 156.85C375.109 161.2 372.289 164.545 368.569 166.885C364.879 169.195 360.544 170.35 355.564 170.35C352.024 170.35 348.799 169.735 345.889 168.505C342.979 167.275 340.489 165.55 338.419 163.33C336.379 161.08 334.789 158.38 333.649 155.23C332.539 152.08 331.984 148.57 331.984 144.7C331.984 140.8 332.539 137.275 333.649 134.125C334.759 130.945 336.334 128.245 338.374 126.025C340.444 123.805 342.919 122.095 345.799 120.895C348.679 119.665 351.874 119.05 355.384 119.05C359.104 119.05 362.404 119.695 365.284 120.985C368.164 122.275 370.564 124.12 372.484 126.52C374.404 128.92 375.814 131.845 376.714 135.295C377.644 138.745 378.019 142.63 377.839 146.95H340.579C340.759 149.47 341.224 151.72 341.974 153.7C342.754 155.65 343.789 157.3 345.079 158.65C346.369 160 347.884 161.035 349.624 161.755C351.394 162.475 353.374 162.835 355.564 162.835ZM369.514 140.515C369.154 135.955 367.759 132.46 365.329 130.03C362.899 127.57 359.584 126.34 355.384 126.34C351.244 126.34 347.914 127.57 345.394 130.03C342.904 132.49 341.359 135.985 340.759 140.515H369.514ZM424.038 120.4V169H416.028V132.955L392.223 169H384.213V120.4H392.223V156.445L416.028 120.4H424.038Z" fill="white"/>
</g>
<g filter="url(#filter2_b_650_553)">
<path d="M2.24 275V251.96H10.96C12.2187 251.96 13.328 252.131 14.288 252.472C15.2587 252.803 16.0747 253.283 16.736 253.912C17.3973 254.531 17.8987 255.293 18.24 256.2C18.5813 257.096 18.752 258.104 18.752 259.224C18.752 260.344 18.5813 261.352 18.24 262.248C17.8987 263.144 17.3973 263.907 16.736 264.536C16.0747 265.165 15.2587 265.651 14.288 265.992C13.3173 266.323 12.208 266.488 10.96 266.488H5.104V275H2.24ZM5.104 263.784H10.944C12.5013 263.784 13.7067 263.389 14.56 262.6C15.4133 261.8 15.84 260.675 15.84 259.224C15.84 257.773 15.4133 256.653 14.56 255.864C13.7067 255.064 12.5013 254.664 10.944 254.664H5.104V263.784ZM28.1348 257.24C30.4921 257.24 32.2521 257.848 33.4148 259.064C34.5774 260.269 35.1588 262.099 35.1588 264.552V275H32.3108V272.28C31.7028 273.336 30.8921 274.136 29.8788 274.68C28.8761 275.213 27.6761 275.48 26.2788 275.48C25.3721 275.48 24.5508 275.363 23.8148 275.128C23.0894 274.893 22.4708 274.557 21.9588 274.12C21.4468 273.672 21.0521 273.139 20.7748 272.52C20.4974 271.891 20.3588 271.187 20.3588 270.408C20.3588 269.523 20.5188 268.755 20.8388 268.104C21.1694 267.453 21.6334 266.904 22.2308 266.456C22.8388 266.008 23.5694 265.651 24.4228 265.384C25.2868 265.117 26.2574 264.915 27.3348 264.776L32.3108 264.168C32.3001 262.653 31.9534 261.549 31.2708 260.856C30.5881 260.163 29.5321 259.816 28.1028 259.816C26.8761 259.816 25.9001 260.056 25.1748 260.536C24.4494 261.016 23.9428 261.763 23.6548 262.776L20.9988 262.104C21.4254 260.515 22.2468 259.309 23.4628 258.488C24.6894 257.656 26.2468 257.24 28.1348 257.24ZM27.6548 266.968C26.0761 267.171 24.9348 267.528 24.2308 268.04C23.5268 268.541 23.1748 269.267 23.1748 270.216C23.1748 271.144 23.4841 271.843 24.1028 272.312C24.7214 272.781 25.6441 273.016 26.8708 273.016C27.5428 273.016 28.1614 272.925 28.7268 272.744C29.3028 272.552 29.8094 272.285 30.2468 271.944C30.6948 271.603 31.0681 271.192 31.3668 270.712C31.6761 270.232 31.9001 269.699 32.0388 269.112C32.1774 268.675 32.2574 268.216 32.2788 267.736C32.3001 267.256 32.3108 266.824 32.3108 266.44V266.392L27.6548 266.968ZM44.7108 275.48C43.7081 275.48 42.7854 275.368 41.9428 275.144C41.1001 274.92 40.3588 274.579 39.7188 274.12C39.0788 273.651 38.5454 273.059 38.1188 272.344C37.7028 271.629 37.4094 270.787 37.2388 269.816L39.9588 269.32C40.1401 270.536 40.6254 271.443 41.4148 272.04C42.2148 272.637 43.2868 272.936 44.6308 272.936C46.0281 272.936 47.0894 272.675 47.8148 272.152C48.5508 271.629 48.9188 270.915 48.9188 270.008C48.9188 269.517 48.8281 269.101 48.6468 268.76C48.4761 268.419 48.2361 268.141 47.9268 267.928C47.6174 267.704 47.2494 267.544 46.8228 267.448C46.3961 267.352 45.9321 267.304 45.4308 267.304H42.7748V264.952H45.4308C46.4014 264.952 47.1481 264.755 47.6708 264.36C48.2041 263.965 48.4708 263.395 48.4708 262.648C48.4708 261.731 48.1454 261.027 47.4948 260.536C46.8441 260.035 45.8894 259.784 44.6308 259.784C43.9801 259.784 43.4041 259.853 42.9028 259.992C42.4121 260.131 41.9908 260.333 41.6388 260.6C41.2868 260.856 40.9934 261.176 40.7588 261.56C40.5348 261.944 40.3641 262.376 40.2468 262.856L37.5268 262.36C37.7614 261.4 38.1081 260.595 38.5668 259.944C39.0361 259.283 39.5854 258.755 40.2148 258.36C40.8548 257.955 41.5534 257.667 42.3108 257.496C43.0681 257.325 43.8628 257.24 44.6948 257.24C45.7401 257.24 46.6681 257.363 47.4788 257.608C48.3001 257.843 48.9934 258.189 49.5588 258.648C50.1241 259.096 50.5508 259.645 50.8388 260.296C51.1374 260.936 51.2868 261.667 51.2868 262.488C51.2868 263.373 51.0948 264.109 50.7108 264.696C50.3268 265.283 49.7668 265.736 49.0308 266.056C49.4148 266.173 49.7721 266.355 50.1028 266.6C50.4334 266.845 50.7214 267.139 50.9668 267.48C51.2121 267.821 51.4041 268.211 51.5428 268.648C51.6814 269.075 51.7508 269.539 51.7508 270.04C51.7508 270.84 51.5908 271.576 51.2708 272.248C50.9614 272.909 50.5028 273.48 49.8948 273.96C49.2974 274.44 48.5614 274.813 47.6868 275.08C46.8121 275.347 45.8201 275.48 44.7108 275.48ZM54.6325 282.68V257.72H57.4805V260.424C58.0352 259.421 58.7818 258.643 59.7205 258.088C60.6698 257.523 61.8485 257.24 63.2565 257.24C64.4512 257.24 65.5338 257.464 66.5045 257.912C67.4752 258.36 68.3018 258.989 68.9845 259.8C69.6672 260.6 70.1898 261.56 70.5525 262.68C70.9258 263.789 71.1125 265.011 71.1125 266.344C71.1125 267.699 70.9258 268.936 70.5525 270.056C70.1792 271.176 69.6512 272.141 68.9685 272.952C68.2858 273.752 67.4592 274.376 66.4885 274.824C65.5178 275.261 64.4405 275.48 63.2565 275.48C61.8485 275.48 60.6698 275.197 59.7205 274.632C58.7818 274.067 58.0352 273.288 57.4805 272.296V282.68H54.6325ZM62.7765 272.776C63.6725 272.776 64.4512 272.621 65.1125 272.312C65.7738 271.992 66.3232 271.549 66.7605 270.984C67.2085 270.419 67.5392 269.741 67.7525 268.952C67.9765 268.163 68.0885 267.293 68.0885 266.344C68.0885 265.373 67.9765 264.493 67.7525 263.704C67.5285 262.915 67.1925 262.243 66.7445 261.688C66.3072 261.133 65.7578 260.707 65.0965 260.408C64.4352 260.099 63.6618 259.944 62.7765 259.944C61.8698 259.944 61.0858 260.104 60.4245 260.424C59.7632 260.733 59.2138 261.171 58.7765 261.736C58.3392 262.291 58.0138 262.963 57.8005 263.752C57.5872 264.531 57.4805 265.395 57.4805 266.344C57.4805 267.315 57.5925 268.2 57.8165 269C58.0405 269.789 58.3712 270.467 58.8085 271.032C59.2565 271.587 59.8112 272.019 60.4725 272.328C61.1338 272.627 61.9018 272.776 62.7765 272.776ZM80.8085 257.24C83.1658 257.24 84.9258 257.848 86.0885 259.064C87.2512 260.269 87.8325 262.099 87.8325 264.552V275H84.9845V272.28C84.3765 273.336 83.5658 274.136 82.5525 274.68C81.5498 275.213 80.3498 275.48 78.9525 275.48C78.0458 275.48 77.2245 275.363 76.4885 275.128C75.7632 274.893 75.1445 274.557 74.6325 274.12C74.1205 273.672 73.7258 273.139 73.4485 272.52C73.1712 271.891 73.0325 271.187 73.0325 270.408C73.0325 269.523 73.1925 268.755 73.5125 268.104C73.8432 267.453 74.3072 266.904 74.9045 266.456C75.5125 266.008 76.2432 265.651 77.0965 265.384C77.9605 265.117 78.9312 264.915 80.0085 264.776L84.9845 264.168C84.9738 262.653 84.6272 261.549 83.9445 260.856C83.2618 260.163 82.2058 259.816 80.7765 259.816C79.5498 259.816 78.5738 260.056 77.8485 260.536C77.1232 261.016 76.6165 261.763 76.3285 262.776L73.6725 262.104C74.0992 260.515 74.9205 259.309 76.1365 258.488C77.3632 257.656 78.9205 257.24 80.8085 257.24ZM80.3285 266.968C78.7498 267.171 77.6085 267.528 76.9045 268.04C76.2005 268.541 75.8485 269.267 75.8485 270.216C75.8485 271.144 76.1578 271.843 76.7765 272.312C77.3952 272.781 78.3178 273.016 79.5445 273.016C80.2165 273.016 80.8352 272.925 81.4005 272.744C81.9765 272.552 82.4832 272.285 82.9205 271.944C83.3685 271.603 83.7418 271.192 84.0405 270.712C84.3498 270.232 84.5738 269.699 84.7125 269.112C84.8512 268.675 84.9312 268.216 84.9525 267.736C84.9738 267.256 84.9845 266.824 84.9845 266.44V266.392L80.3285 266.968ZM98.2805 275.496C97.0538 275.485 95.9658 275.272 95.0165 274.856C94.0778 274.44 93.2778 273.843 92.6165 273.064C91.9552 272.275 91.4432 271.32 91.0805 270.2C90.7178 269.069 90.5045 267.795 90.4405 266.376C90.3978 265.672 90.3872 264.877 90.4085 263.992C90.4298 263.107 90.4938 262.237 90.6005 261.384C90.7072 260.52 90.8405 259.72 91.0005 258.984C91.1712 258.248 91.3898 257.576 91.6565 256.968C91.9338 256.349 92.2698 255.795 92.6645 255.304C93.0592 254.813 93.5338 254.387 94.0885 254.024C94.6112 253.683 95.1498 253.411 95.7045 253.208C96.2592 252.995 96.8298 252.824 97.4165 252.696C98.0032 252.568 98.6058 252.467 99.2245 252.392C99.8538 252.307 100.499 252.227 101.161 252.152C101.833 252.077 102.521 251.992 103.225 251.896C103.929 251.789 104.659 251.651 105.417 251.48L105.625 254.168C104.537 254.424 103.523 254.605 102.585 254.712C101.646 254.808 100.771 254.904 99.9605 255C99.1605 255.096 98.4138 255.224 97.7205 255.384C97.0378 255.533 96.3978 255.784 95.8005 256.136C95.3952 256.371 95.0485 256.648 94.7605 256.968C94.4725 257.288 94.2272 257.677 94.0245 258.136C93.8218 258.584 93.6565 259.117 93.5285 259.736C93.4112 260.355 93.3152 261.08 93.2405 261.912C93.9125 260.867 94.7338 260.104 95.7045 259.624C96.6752 259.144 97.7792 258.904 99.0165 258.904C100.115 258.904 101.118 259.101 102.025 259.496C102.942 259.891 103.726 260.451 104.377 261.176C105.027 261.901 105.534 262.771 105.897 263.784C106.259 264.787 106.441 265.907 106.441 267.144C106.441 268.413 106.243 269.565 105.849 270.6C105.454 271.624 104.899 272.504 104.185 273.24C103.47 273.965 102.611 274.525 101.609 274.92C100.606 275.315 99.4965 275.507 98.2805 275.496ZM98.3765 272.792C99.1765 272.792 99.8912 272.664 100.521 272.408C101.15 272.141 101.678 271.768 102.105 271.288C102.542 270.797 102.873 270.211 103.097 269.528C103.321 268.845 103.433 268.083 103.433 267.24C103.433 266.376 103.321 265.603 103.097 264.92C102.883 264.227 102.563 263.635 102.137 263.144C101.721 262.653 101.209 262.28 100.601 262.024C99.9925 261.757 99.2992 261.624 98.5205 261.624C97.7098 261.624 96.9898 261.757 96.3605 262.024C95.7418 262.28 95.2192 262.653 94.7925 263.144C94.3658 263.624 94.0405 264.211 93.8165 264.904C93.5925 265.597 93.4805 266.376 93.4805 267.24C93.4805 268.083 93.5925 268.851 93.8165 269.544C94.0405 270.227 94.3605 270.808 94.7765 271.288C95.2032 271.768 95.7205 272.141 96.3285 272.408C96.9365 272.664 97.6192 272.792 98.3765 272.792ZM116.666 275.48C115.386 275.48 114.229 275.256 113.194 274.808C112.17 274.36 111.296 273.736 110.57 272.936C109.856 272.125 109.306 271.16 108.922 270.04C108.538 268.92 108.346 267.688 108.346 266.344C108.346 264.989 108.538 263.757 108.922 262.648C109.317 261.528 109.872 260.568 110.586 259.768C111.312 258.968 112.186 258.349 113.21 257.912C114.245 257.464 115.397 257.24 116.666 257.24C117.957 257.24 119.114 257.464 120.138 257.912C121.173 258.349 122.048 258.973 122.762 259.784C123.488 260.584 124.042 261.544 124.426 262.664C124.81 263.773 125.002 265 125.002 266.344C125.002 267.699 124.805 268.936 124.41 270.056C124.026 271.176 123.472 272.141 122.746 272.952C122.032 273.752 121.157 274.376 120.122 274.824C119.098 275.261 117.946 275.48 116.666 275.48ZM116.666 272.776C117.541 272.776 118.309 272.627 118.97 272.328C119.632 272.019 120.186 271.587 120.634 271.032C121.082 270.467 121.418 269.789 121.642 269C121.866 268.2 121.978 267.315 121.978 266.344C121.978 265.352 121.866 264.461 121.642 263.672C121.418 262.883 121.082 262.211 120.634 261.656C120.186 261.101 119.632 260.68 118.97 260.392C118.309 260.093 117.541 259.944 116.666 259.944C115.792 259.944 115.018 260.093 114.346 260.392C113.685 260.691 113.136 261.123 112.698 261.688C112.261 262.243 111.93 262.915 111.706 263.704C111.482 264.483 111.37 265.363 111.37 266.344C111.37 267.336 111.482 268.227 111.706 269.016C111.941 269.805 112.282 270.483 112.73 271.048C113.178 271.603 113.728 272.029 114.378 272.328C115.04 272.627 115.802 272.776 116.666 272.776ZM131.975 275V260.408H126.039V257.72H140.759V260.408H134.823V275H131.975ZM143.135 257.72H145.983V266.04L153.231 257.72H156.927L149.295 266.36L157.823 275H153.839L145.983 266.68V275H143.135V257.72ZM165.609 257.24C167.966 257.24 169.726 257.848 170.889 259.064C172.051 260.269 172.633 262.099 172.633 264.552V275H169.785V272.28C169.177 273.336 168.366 274.136 167.353 274.68C166.35 275.213 165.15 275.48 163.753 275.48C162.846 275.48 162.025 275.363 161.289 275.128C160.563 274.893 159.945 274.557 159.433 274.12C158.921 273.672 158.526 273.139 158.249 272.52C157.971 271.891 157.833 271.187 157.833 270.408C157.833 269.523 157.993 268.755 158.313 268.104C158.643 267.453 159.107 266.904 159.705 266.456C160.313 266.008 161.043 265.651 161.897 265.384C162.761 265.117 163.731 264.915 164.809 264.776L169.785 264.168C169.774 262.653 169.427 261.549 168.745 260.856C168.062 260.163 167.006 259.816 165.577 259.816C164.35 259.816 163.374 260.056 162.649 260.536C161.923 261.016 161.417 261.763 161.129 262.776L158.473 262.104C158.899 260.515 159.721 259.309 160.937 258.488C162.163 257.656 163.721 257.24 165.609 257.24ZM165.129 266.968C163.55 267.171 162.409 267.528 161.705 268.04C161.001 268.541 160.649 269.267 160.649 270.216C160.649 271.144 160.958 271.843 161.577 272.312C162.195 272.781 163.118 273.016 164.345 273.016C165.017 273.016 165.635 272.925 166.201 272.744C166.777 272.552 167.283 272.285 167.721 271.944C168.169 271.603 168.542 271.192 168.841 270.712C169.15 270.232 169.374 269.699 169.513 269.112C169.651 268.675 169.731 268.216 169.753 267.736C169.774 267.256 169.785 266.824 169.785 266.44V266.392L165.129 266.968ZM189.913 259.448C191.769 259.448 193.305 260.984 193.305 262.84C193.305 264.728 191.769 266.264 189.913 266.264C188.025 266.264 186.489 264.728 186.489 262.84C186.489 260.984 188.025 259.448 189.913 259.448ZM206.393 272.296H208.313C208.686 271.848 208.985 271.203 209.209 270.36C209.443 269.507 209.619 268.515 209.737 267.384C209.865 266.253 209.95 265.021 209.993 263.688C210.035 262.355 210.057 260.979 210.057 259.56V251.96H225.641V272.296H228.233V279.32H225.369V275H209.241V279.32H206.393V272.296ZM222.777 272.296V254.664H212.761V261.4C212.761 262.712 212.729 263.944 212.665 265.096C212.601 266.237 212.505 267.277 212.377 268.216C212.259 269.144 212.115 269.955 211.945 270.648C211.785 271.341 211.598 271.891 211.385 272.296H222.777ZM245.267 257.72V275H242.419V262.184L233.955 275H231.107V257.72H233.955V270.536L242.419 257.72H245.267ZM255.139 275.48C254.137 275.48 253.214 275.368 252.371 275.144C251.529 274.92 250.787 274.579 250.147 274.12C249.507 273.651 248.974 273.059 248.547 272.344C248.131 271.629 247.838 270.787 247.667 269.816L250.387 269.32C250.569 270.536 251.054 271.443 251.843 272.04C252.643 272.637 253.715 272.936 255.059 272.936C256.457 272.936 257.518 272.675 258.243 272.152C258.979 271.629 259.347 270.915 259.347 270.008C259.347 269.517 259.257 269.101 259.075 268.76C258.905 268.419 258.665 268.141 258.355 267.928C258.046 267.704 257.678 267.544 257.251 267.448C256.825 267.352 256.361 267.304 255.859 267.304H253.203V264.952H255.859C256.83 264.952 257.577 264.755 258.099 264.36C258.633 263.965 258.899 263.395 258.899 262.648C258.899 261.731 258.574 261.027 257.923 260.536C257.273 260.035 256.318 259.784 255.059 259.784C254.409 259.784 253.833 259.853 253.331 259.992C252.841 260.131 252.419 260.333 252.067 260.6C251.715 260.856 251.422 261.176 251.187 261.56C250.963 261.944 250.793 262.376 250.675 262.856L247.955 262.36C248.19 261.4 248.537 260.595 248.995 259.944C249.465 259.283 250.014 258.755 250.643 258.36C251.283 257.955 251.982 257.667 252.739 257.496C253.497 257.325 254.291 257.24 255.123 257.24C256.169 257.24 257.097 257.363 257.907 257.608C258.729 257.843 259.422 258.189 259.987 258.648C260.553 259.096 260.979 259.645 261.267 260.296C261.566 260.936 261.715 261.667 261.715 262.488C261.715 263.373 261.523 264.109 261.139 264.696C260.755 265.283 260.195 265.736 259.459 266.056C259.843 266.173 260.201 266.355 260.531 266.6C260.862 266.845 261.15 267.139 261.395 267.48C261.641 267.821 261.833 268.211 261.971 268.648C262.11 269.075 262.179 269.539 262.179 270.04C262.179 270.84 262.019 271.576 261.699 272.248C261.39 272.909 260.931 273.48 260.323 273.96C259.726 274.44 258.99 274.813 258.115 275.08C257.241 275.347 256.249 275.48 255.139 275.48ZM271.877 257.24C274.235 257.24 275.995 257.848 277.157 259.064C278.32 260.269 278.901 262.099 278.901 264.552V275H276.053V272.28C275.445 273.336 274.635 274.136 273.621 274.68C272.619 275.213 271.419 275.48 270.021 275.48C269.115 275.48 268.293 275.363 267.557 275.128C266.832 274.893 266.213 274.557 265.701 274.12C265.189 273.672 264.795 273.139 264.517 272.52C264.24 271.891 264.101 271.187 264.101 270.408C264.101 269.523 264.261 268.755 264.581 268.104C264.912 267.453 265.376 266.904 265.973 266.456C266.581 266.008 267.312 265.651 268.165 265.384C269.029 265.117 270 264.915 271.077 264.776L276.053 264.168C276.043 262.653 275.696 261.549 275.013 260.856C274.331 260.163 273.275 259.816 271.845 259.816C270.619 259.816 269.643 260.056 268.917 260.536C268.192 261.016 267.685 261.763 267.397 262.776L264.741 262.104C265.168 260.515 265.989 259.309 267.205 258.488C268.432 257.656 269.989 257.24 271.877 257.24ZM271.397 266.968C269.819 267.171 268.677 267.528 267.973 268.04C267.269 268.541 266.917 269.267 266.917 270.216C266.917 271.144 267.227 271.843 267.845 272.312C268.464 272.781 269.387 273.016 270.613 273.016C271.285 273.016 271.904 272.925 272.469 272.744C273.045 272.552 273.552 272.285 273.989 271.944C274.437 271.603 274.811 271.192 275.109 270.712C275.419 270.232 275.643 269.699 275.781 269.112C275.92 268.675 276 268.216 276.021 267.736C276.043 267.256 276.053 266.824 276.053 266.44V266.392L271.397 266.968ZM289.861 255.704C289.072 255.704 288.341 255.512 287.669 255.128C286.997 254.733 286.464 254.2 286.069 253.528C285.685 252.856 285.493 252.125 285.493 251.336H287.797C287.797 251.709 287.888 252.056 288.069 252.376C288.261 252.685 288.512 252.936 288.821 253.128C289.141 253.309 289.488 253.4 289.861 253.4C290.245 253.4 290.592 253.309 290.901 253.128C291.221 252.936 291.472 252.685 291.653 252.376C291.835 252.056 291.925 251.709 291.925 251.336H294.229C294.229 252.125 294.032 252.856 293.637 253.528C293.253 254.2 292.725 254.733 292.053 255.128C291.392 255.512 290.661 255.704 289.861 255.704ZM296.565 257.72V275H293.717V262.184L285.253 275H282.405V257.72H285.253V270.536L293.717 257.72H296.565ZM300.39 275V257.72H303.238V265.016H312.326V257.72H315.174V275H312.326V267.704H303.238V275H300.39ZM332.776 259.448C334.632 259.448 336.168 260.984 336.168 262.84C336.168 264.728 334.632 266.264 332.776 266.264C330.888 266.264 329.352 264.728 329.352 262.84C329.352 260.984 330.888 259.448 332.776 259.448ZM350.376 251.96H365.016V254.664H353.24V260.952H359.192C360.44 260.952 361.544 261.128 362.504 261.48C363.464 261.821 364.264 262.301 364.904 262.92C365.555 263.539 366.046 264.28 366.376 265.144C366.718 265.997 366.888 266.941 366.888 267.976C366.888 269 366.718 269.944 366.376 270.808C366.046 271.672 365.555 272.413 364.904 273.032C364.264 273.651 363.464 274.136 362.504 274.488C361.544 274.829 360.44 275 359.192 275H350.376V251.96ZM358.872 272.296C359.747 272.296 360.504 272.189 361.144 271.976C361.784 271.763 362.312 271.464 362.728 271.08C363.155 270.696 363.47 270.243 363.672 269.72C363.875 269.187 363.976 268.605 363.976 267.976C363.976 267.347 363.875 266.771 363.672 266.248C363.47 265.715 363.155 265.256 362.728 264.872C362.312 264.488 361.784 264.189 361.144 263.976C360.504 263.763 359.747 263.656 358.872 263.656H353.24V272.296H358.872ZM369.455 282.68V257.72H372.303V260.424C372.858 259.421 373.604 258.643 374.543 258.088C375.492 257.523 376.671 257.24 378.079 257.24C379.274 257.24 380.356 257.464 381.327 257.912C382.298 258.36 383.124 258.989 383.807 259.8C384.49 260.6 385.012 261.56 385.375 262.68C385.748 263.789 385.935 265.011 385.935 266.344C385.935 267.699 385.748 268.936 385.375 270.056C385.002 271.176 384.474 272.141 383.791 272.952C383.108 273.752 382.282 274.376 381.311 274.824C380.34 275.261 379.263 275.48 378.079 275.48C376.671 275.48 375.492 275.197 374.543 274.632C373.604 274.067 372.858 273.288 372.303 272.296V282.68H369.455ZM377.599 272.776C378.495 272.776 379.274 272.621 379.935 272.312C380.596 271.992 381.146 271.549 381.583 270.984C382.031 270.419 382.362 269.741 382.575 268.952C382.799 268.163 382.911 267.293 382.911 266.344C382.911 265.373 382.799 264.493 382.575 263.704C382.351 262.915 382.015 262.243 381.567 261.688C381.13 261.133 380.58 260.707 379.919 260.408C379.258 260.099 378.484 259.944 377.599 259.944C376.692 259.944 375.908 260.104 375.247 260.424C374.586 260.733 374.036 261.171 373.599 261.736C373.162 262.291 372.836 262.963 372.623 263.752C372.41 264.531 372.303 265.395 372.303 266.344C372.303 267.315 372.415 268.2 372.639 269C372.863 269.789 373.194 270.467 373.631 271.032C374.079 271.587 374.634 272.019 375.295 272.328C375.956 272.627 376.724 272.776 377.599 272.776ZM396.239 272.808C397.434 272.808 398.426 272.547 399.215 272.024C400.004 271.501 400.639 270.749 401.119 269.768L403.871 270.68C403.188 272.227 402.186 273.416 400.863 274.248C399.551 275.069 398.01 275.48 396.239 275.48C394.98 275.48 393.834 275.261 392.799 274.824C391.764 274.387 390.879 273.773 390.143 272.984C389.418 272.184 388.852 271.224 388.447 270.104C388.052 268.984 387.855 267.736 387.855 266.36C387.855 264.973 388.052 263.72 388.447 262.6C388.842 261.469 389.402 260.509 390.127 259.72C390.863 258.931 391.743 258.323 392.767 257.896C393.791 257.459 394.927 257.24 396.175 257.24C397.498 257.24 398.671 257.469 399.695 257.928C400.719 258.387 401.572 259.043 402.255 259.896C402.938 260.749 403.439 261.789 403.759 263.016C404.09 264.243 404.223 265.624 404.159 267.16H390.911C390.975 268.056 391.14 268.856 391.407 269.56C391.684 270.253 392.052 270.84 392.511 271.32C392.97 271.8 393.508 272.168 394.127 272.424C394.756 272.68 395.46 272.808 396.239 272.808ZM401.199 264.872C401.071 263.251 400.575 262.008 399.711 261.144C398.847 260.269 397.668 259.832 396.175 259.832C394.703 259.832 393.519 260.269 392.623 261.144C391.738 262.019 391.188 263.261 390.975 264.872H401.199ZM407.065 275V257.72H409.913V265.016H419.001V257.72H421.849V275H419.001V267.704H409.913V275H407.065ZM424.411 272.312H426.091C426.369 271.992 426.587 271.555 426.747 271C426.918 270.435 427.051 269.789 427.147 269.064C427.243 268.339 427.307 267.555 427.339 266.712C427.371 265.859 427.387 264.984 427.387 264.088V257.72H440.267V272.312H442.507V278.68H439.659V275H427.259V278.68H424.411V272.312ZM437.419 272.312V260.408H430.059V265.592C430.059 266.317 430.038 267.016 429.995 267.688C429.953 268.349 429.889 268.973 429.803 269.56C429.718 270.136 429.617 270.659 429.499 271.128C429.393 271.597 429.265 271.992 429.115 272.312H437.419ZM459.226 257.72V275H456.378V262.184L447.914 275H445.066V257.72H447.914V270.536L456.378 257.72H459.226ZM463.052 275V257.72H465.9V265.016H474.988V257.72H477.836V275H474.988V267.704H465.9V275H463.052ZM481.678 275V257.72H492.958V260.408H484.542V275H481.678ZM509.11 259.448C510.966 259.448 512.502 260.984 512.502 262.84C512.502 264.728 510.966 266.264 509.11 266.264C507.222 266.264 505.686 264.728 505.686 262.84C505.686 260.984 507.222 259.448 509.11 259.448ZM544.566 274.984H541.558L539.702 269.592H529.91L528.07 274.984H525.062L532.982 251.944H536.646L544.566 274.984ZM538.79 266.92L534.806 255.24L530.822 266.92H538.79ZM546.742 275V257.72H549.59V265.016H558.678V257.72H561.526V275H558.678V267.704H549.59V275H546.742ZM572.184 257.24C574.541 257.24 576.301 257.848 577.464 259.064C578.626 260.269 579.208 262.099 579.208 264.552V275H576.36V272.28C575.752 273.336 574.941 274.136 573.928 274.68C572.925 275.213 571.725 275.48 570.328 275.48C569.421 275.48 568.6 275.363 567.864 275.128C567.138 274.893 566.52 274.557 566.008 274.12C565.496 273.672 565.101 273.139 564.824 272.52C564.546 271.891 564.408 271.187 564.408 270.408C564.408 269.523 564.568 268.755 564.888 268.104C565.218 267.453 565.682 266.904 566.28 266.456C566.888 266.008 567.618 265.651 568.472 265.384C569.336 265.117 570.306 264.915 571.384 264.776L576.36 264.168C576.349 262.653 576.002 261.549 575.32 260.856C574.637 260.163 573.581 259.816 572.152 259.816C570.925 259.816 569.949 260.056 569.224 260.536C568.498 261.016 567.992 261.763 567.704 262.776L565.048 262.104C565.474 260.515 566.296 259.309 567.512 258.488C568.738 257.656 570.296 257.24 572.184 257.24ZM571.704 266.968C570.125 267.171 568.984 267.528 568.28 268.04C567.576 268.541 567.224 269.267 567.224 270.216C567.224 271.144 567.533 271.843 568.152 272.312C568.77 272.781 569.693 273.016 570.92 273.016C571.592 273.016 572.21 272.925 572.776 272.744C573.352 272.552 573.858 272.285 574.296 271.944C574.744 271.603 575.117 271.192 575.416 270.712C575.725 270.232 575.949 269.699 576.088 269.112C576.226 268.675 576.306 268.216 576.328 267.736C576.349 267.256 576.36 266.824 576.36 266.44V266.392L571.704 266.968ZM581.127 272.744C581.405 272.829 581.645 272.872 581.847 272.872C582.295 272.872 582.663 272.712 582.951 272.392C583.25 272.072 583.485 271.608 583.655 271C583.837 270.392 583.965 269.651 584.039 268.776C584.114 267.891 584.151 266.888 584.151 265.768V257.72H596.871V275H594.023V260.408H586.823V266.568C586.823 269.629 586.477 271.88 585.783 273.32C585.09 274.76 584.061 275.48 582.695 275.48C582.194 275.48 581.671 275.395 581.127 275.224V272.744ZM614.856 257.72V275H612.008V262.184L603.544 275H600.696V257.72H603.544V270.536L612.008 257.72H614.856ZM623.194 275V260.408H617.258V257.72H631.978V260.408H626.042V275H623.194ZM648.514 257.72V275H645.666V262.184L637.202 275H634.354V257.72H637.202V270.536L645.666 257.72H648.514ZM652.339 257.72H655.187V266.04L662.435 257.72H666.131L658.499 266.36L667.027 275H663.043L655.187 266.68V275H652.339V257.72ZM674.812 257.24C677.17 257.24 678.93 257.848 680.092 259.064C681.255 260.269 681.836 262.099 681.836 264.552V275H678.988V272.28C678.38 273.336 677.57 274.136 676.556 274.68C675.554 275.213 674.354 275.48 672.956 275.48C672.05 275.48 671.228 275.363 670.492 275.128C669.767 274.893 669.148 274.557 668.636 274.12C668.124 273.672 667.73 273.139 667.452 272.52C667.175 271.891 667.036 271.187 667.036 270.408C667.036 269.523 667.196 268.755 667.516 268.104C667.847 267.453 668.311 266.904 668.908 266.456C669.516 266.008 670.247 265.651 671.1 265.384C671.964 265.117 672.935 264.915 674.012 264.776L678.988 264.168C678.978 262.653 678.631 261.549 677.948 260.856C677.266 260.163 676.21 259.816 674.78 259.816C673.554 259.816 672.578 260.056 671.852 260.536C671.127 261.016 670.62 261.763 670.332 262.776L667.676 262.104C668.103 260.515 668.924 259.309 670.14 258.488C671.367 257.656 672.924 257.24 674.812 257.24ZM674.332 266.968C672.754 267.171 671.612 267.528 670.908 268.04C670.204 268.541 669.852 269.267 669.852 270.216C669.852 271.144 670.162 271.843 670.78 272.312C671.399 272.781 672.322 273.016 673.548 273.016C674.22 273.016 674.839 272.925 675.404 272.744C675.98 272.552 676.487 272.285 676.924 271.944C677.372 271.603 677.746 271.192 678.044 270.712C678.354 270.232 678.578 269.699 678.716 269.112C678.855 268.675 678.935 268.216 678.956 267.736C678.978 267.256 678.988 266.824 678.988 266.44V266.392L674.332 266.968Z" fill="white" fill-opacity="0.52"/>
</g>
<defs>
<filter id="filter0_b_650_553" x="-43.7" y="-35.8" width="621.445" height="186.4" filterUnits="userSpaceOnUse" color-interpolation-filters="sRGB">
<feFlood flood-opacity="0" result="BackgroundImageFix"/>
<feGaussianBlur in="BackgroundImageFix" stdDeviation="25"/>
<feComposite in2="SourceAlpha" operator="in" result="effect1_backgroundBlur_650_553"/>
<feBlend mode="normal" in="SourceGraphic" in2="effect1_backgroundBlur_650_553" result="shape"/>
</filter>
<filter id="filter1_b_650_553" x="-43.7451" y="69.05" width="517.783" height="160.3" filterUnits="userSpaceOnUse" color-interpolation-filters="sRGB">
<feFlood flood-opacity="0" result="BackgroundImageFix"/>
<feGaussianBlur in="BackgroundImageFix" stdDeviation="25"/>
<feComposite in2="SourceAlpha" operator="in" result="effect1_backgroundBlur_650_553"/>
<feBlend mode="normal" in="SourceGraphic" in2="effect1_backgroundBlur_650_553" result="shape"/>
</filter>
<filter id="filter2_b_650_553" x="-47.76" y="201.336" width="779.596" height="131.344" filterUnits="userSpaceOnUse" color-interpolation-filters="sRGB">
<feFlood flood-opacity="0" result="BackgroundImageFix"/>
<feGaussianBlur in="BackgroundImageFix" stdDeviation="25"/>
<feComposite in2="SourceAlpha" operator="in" result="effect1_backgroundBlur_650_553"/>
<feBlend mode="normal" in="SourceGraphic" in2="effect1_backgroundBlur_650_553" result="shape"/>
</filter>
</defs>
</svg>
