<svg width="488" height="61" viewBox="0 0 488 61" fill="none" xmlns="http://www.w3.org/2000/svg">
<path d="M20.593 50H0.297969V1.4H19.738C25.438 1.4 29.773 2.51 32.743 4.73C35.713 6.92 37.198 10.16 37.198 14.45C37.198 17.18 36.583 19.4 35.353 21.11C34.123 22.82 32.503 24.065 30.493 24.845C31.633 25.175 32.698 25.685 33.688 26.375C34.678 27.065 35.533 27.92 36.253 28.94C37.003 29.93 37.588 31.07 38.008 32.36C38.428 33.65 38.638 35.045 38.638 36.545C38.638 40.955 37.108 44.3 34.048 46.58C30.988 48.86 26.503 50 20.593 50ZM19.738 8.015H7.81297V21.92H21.088C22.318 21.92 23.443 21.8 24.463 21.56C25.513 21.29 26.398 20.885 27.118 20.345C27.868 19.775 28.438 19.07 28.828 18.23C29.248 17.39 29.458 16.385 29.458 15.215C29.458 12.635 28.678 10.79 27.118 9.68C25.588 8.57 23.128 8.015 19.738 8.015ZM20.458 43.385C23.908 43.385 26.503 42.8 28.243 41.63C30.013 40.46 30.898 38.585 30.898 36.005C30.898 34.655 30.658 33.5 30.178 32.54C29.728 31.58 29.098 30.8 28.288 30.2C27.478 29.57 26.518 29.12 25.408 28.85C24.328 28.58 23.158 28.445 21.898 28.445H7.85797V43.385H20.458ZM98.2257 1.4V50H90.2157V13.955L66.4107 50H58.4007V1.4H66.4107V37.445L90.2157 1.4H98.2257ZM107.184 50V1.4H115.194V21.92H140.754V1.4H148.764V50H140.754V29.48H115.194V50H107.184ZM157.724 50V1.4H165.734V21.92H191.294V1.4H199.304V50H191.294V29.48H165.734V50H157.724ZM229.01 51.35C225.41 51.35 222.155 50.72 219.245 49.46C216.365 48.2 213.905 46.445 211.865 44.195C209.855 41.915 208.31 39.2 207.23 36.05C206.15 32.9 205.61 29.435 205.61 25.655C205.61 21.845 206.15 18.38 207.23 15.26C208.34 12.11 209.9 9.41 211.91 7.16C213.95 4.91 216.41 3.17 219.29 1.94C222.2 0.679998 225.44 0.0499994 229.01 0.0499994C232.64 0.0499994 235.895 0.679998 238.775 1.94C241.685 3.17 244.145 4.925 246.155 7.205C248.195 9.455 249.755 12.155 250.835 15.305C251.915 18.425 252.455 21.875 252.455 25.655C252.455 29.465 251.9 32.945 250.79 36.095C249.71 39.245 248.15 41.96 246.11 44.24C244.1 46.49 241.64 48.245 238.73 49.505C235.85 50.735 232.61 51.35 229.01 51.35ZM229.01 43.745C231.47 43.745 233.63 43.325 235.49 42.485C237.35 41.615 238.91 40.4 240.17 38.84C241.43 37.25 242.375 35.345 243.005 33.125C243.635 30.875 243.95 28.385 243.95 25.655C243.95 22.865 243.635 20.36 243.005 18.14C242.375 15.92 241.43 14.03 240.17 12.47C238.91 10.91 237.35 9.725 235.49 8.915C233.63 8.075 231.47 7.655 229.01 7.655C226.55 7.655 224.375 8.075 222.485 8.915C220.625 9.755 219.08 10.97 217.85 12.56C216.62 14.12 215.69 16.01 215.06 18.23C214.43 20.42 214.115 22.895 214.115 25.655C214.115 28.445 214.43 30.95 215.06 33.17C215.72 35.39 216.68 37.295 217.94 38.885C219.2 40.445 220.745 41.645 222.575 42.485C224.435 43.325 226.58 43.745 229.01 43.745ZM279.012 50H258.717V1.4H278.157C283.857 1.4 288.192 2.51 291.162 4.73C294.132 6.92 295.617 10.16 295.617 14.45C295.617 17.18 295.002 19.4 293.772 21.11C292.542 22.82 290.922 24.065 288.912 24.845C290.052 25.175 291.117 25.685 292.107 26.375C293.097 27.065 293.952 27.92 294.672 28.94C295.422 29.93 296.007 31.07 296.427 32.36C296.847 33.65 297.057 35.045 297.057 36.545C297.057 40.955 295.527 44.3 292.467 46.58C289.407 48.86 284.922 50 279.012 50ZM278.157 8.015H266.232V21.92H279.507C280.737 21.92 281.862 21.8 282.882 21.56C283.932 21.29 284.817 20.885 285.537 20.345C286.287 19.775 286.857 19.07 287.247 18.23C287.667 17.39 287.877 16.385 287.877 15.215C287.877 12.635 287.097 10.79 285.537 9.68C284.007 8.57 281.547 8.015 278.157 8.015ZM278.877 43.385C282.327 43.385 284.922 42.8 286.662 41.63C288.432 40.46 289.317 38.585 289.317 36.005C289.317 34.655 289.077 33.5 288.597 32.54C288.147 31.58 287.517 30.8 286.707 30.2C285.897 29.57 284.937 29.12 283.827 28.85C282.747 28.58 281.577 28.445 280.317 28.445H266.277V43.385H278.877ZM321.618 0.0499994C328.248 0.0499994 333.198 1.76 336.468 5.18C339.738 8.57 341.373 13.715 341.373 20.615V50H333.363V42.35C331.653 45.32 329.373 47.57 326.523 49.1C323.703 50.6 320.328 51.35 316.398 51.35C313.848 51.35 311.538 51.02 309.468 50.36C307.428 49.7 305.688 48.755 304.248 47.525C302.808 46.265 301.698 44.765 300.918 43.025C300.138 41.255 299.748 39.275 299.748 37.085C299.748 34.595 300.198 32.435 301.098 30.605C302.028 28.775 303.333 27.23 305.013 25.97C306.723 24.71 308.778 23.705 311.178 22.955C313.608 22.205 316.338 21.635 319.368 21.245L333.363 19.535C333.333 15.275 332.358 12.17 330.438 10.22C328.518 8.27 325.548 7.295 321.528 7.295C318.078 7.295 315.333 7.97 313.293 9.32C311.253 10.67 309.828 12.77 309.018 15.62L301.548 13.73C302.748 9.26 305.058 5.87 308.478 3.56C311.928 1.22 316.308 0.0499994 321.618 0.0499994ZM320.268 27.41C315.828 27.98 312.618 28.985 310.638 30.425C308.658 31.835 307.668 33.875 307.668 36.545C307.668 39.155 308.538 41.12 310.278 42.44C312.018 43.76 314.613 44.42 318.063 44.42C319.953 44.42 321.693 44.165 323.283 43.655C324.903 43.115 326.328 42.365 327.558 41.405C328.818 40.445 329.868 39.29 330.708 37.94C331.578 36.59 332.208 35.09 332.598 33.44C332.988 32.21 333.213 30.92 333.273 29.57C333.333 28.22 333.363 27.005 333.363 25.925V25.79L320.268 27.41ZM387.543 60.35V50H349.428V1.4H357.438V42.44H381.243V1.4H389.253V42.44H395.553V60.35H387.543ZM438.914 1.4V50H430.904V13.955L407.099 50H399.089V1.4H407.099V37.445L430.904 1.4H438.914ZM487.697 1.4V50H479.687V13.955L455.882 50H447.872V1.4H455.882V37.445L479.687 1.4H487.697Z" fill="#A2A2A2"/>
</svg>
